<svg width="122" height="40" viewBox="0 0 122 40" fill="none" xmlns="http://www.w3.org/2000/svg">
<rect x="0.35" y="0.35" width="121.3" height="39.3" rx="5.65" fill="white" stroke="#A6A6A6" stroke-width="0.7"/>
<path d="M28.3823 20.0604C28.3915 19.1918 28.6212 18.3397 29.0497 17.5841C29.4782 16.8285 30.0916 16.1941 30.8323 15.7404C30.362 15.0696 29.7424 14.5172 29.0222 14.1268C28.302 13.7363 27.501 13.5185 26.6823 13.4904C24.9323 13.3104 23.2423 14.4904 22.3523 14.4904C21.4623 14.4904 20.0723 13.4904 18.6023 13.4904C17.6478 13.521 16.7175 13.7989 15.9025 14.2966C15.0874 14.7944 14.4155 15.4952 13.9523 16.3304C11.9523 19.8104 13.4323 24.9304 15.3623 27.7404C16.3623 29.1204 17.4523 30.6604 18.9323 30.6104C20.4123 30.5604 20.9323 29.6904 22.6523 29.6904C24.3723 29.6904 24.8823 30.6104 26.3823 30.5704C27.8823 30.5304 28.9123 29.1904 29.8423 27.8004C30.5365 26.8191 31.0668 25.7316 31.4123 24.5804C30.5226 24.1921 29.7652 23.5532 29.2324 22.7417C28.6997 21.9301 28.4147 20.9811 28.4123 20.0104L28.3823 20.0604Z" fill="black"/>
<path d="M25.5431 11.64C26.384 10.6213 26.7995 9.31743 26.7031 8C25.4117 8.13588 24.2191 8.75363 23.3631 9.73C22.5228 10.6955 22.0954 11.9524 22.1731 13.23C22.8191 13.235 23.4579 13.0936 24.0416 12.8165C24.6252 12.5394 25.1385 12.1338 25.5431 11.63V11.64Z" fill="black"/>
<path d="M41.1974 24.7248H44.5004L42.8709 19.9244H42.8181L41.1886 24.7248H41.1974ZM44.932 26.0901H40.7658L39.7616 29.0408H38L41.9373 18.1011H43.7694L47.7242 29.0408H45.9626L44.932 26.0901Z" fill="black"/>
<path d="M54.5761 25.0597C54.5761 23.439 53.6953 22.4172 52.471 22.4172C51.2466 22.4172 50.3746 23.5006 50.3746 25.0597C50.3746 26.6187 51.2554 27.7021 52.471 27.7021C53.6865 27.7021 54.5761 26.6539 54.5761 25.0597ZM56.2585 25.0597C56.2585 27.5348 54.9285 29.129 52.929 29.129C52.4214 29.1542 51.9169 29.0362 51.4731 28.7886C51.0293 28.541 50.6639 28.1737 50.4187 27.7285V31.6834H48.7451V21.1136H50.3306V22.4348C50.5859 21.992 50.9568 21.6269 51.4037 21.3786C51.8505 21.1304 52.3565 21.0083 52.8673 21.0255C54.8932 21.0255 56.2233 22.6286 56.2233 25.1037L56.2585 25.0597Z" fill="black"/>
<path d="M63.3574 25.0593C63.3574 23.4386 62.5206 22.4169 61.2434 22.4169C59.9662 22.4169 59.1559 23.5003 59.1559 25.0593C59.1559 26.6184 60.0367 27.7018 61.2434 27.7018C62.4501 27.7018 63.3574 26.6536 63.3574 25.0593ZM65.0397 25.0593C65.0397 27.5344 63.7097 29.1287 61.7102 29.1287C61.2025 29.1549 60.6976 29.0374 60.2536 28.7897C59.8096 28.5419 59.4444 28.1741 59.1999 27.7282V31.6831H57.5264V21.1133H59.1118V22.4345C59.3686 21.9929 59.7398 21.6289 60.1863 21.3808C60.6328 21.1328 61.138 21.0099 61.6486 21.0252C63.6745 21.0252 65.0133 22.6283 65.0133 25.1034L65.0397 25.0593Z" fill="black"/>
<path d="M70.8357 25.9931C70.959 27.0765 72.016 27.7547 73.4781 27.7547C74.9403 27.7547 75.8475 27.0413 75.8475 26.0636C75.8475 25.0858 75.2486 24.7071 73.8304 24.3636L72.3859 24.0553C70.3776 23.5708 69.4528 22.6284 69.4528 21.1046C69.4528 19.2196 71.0911 17.9248 73.4253 17.9248C75.7594 17.9248 77.3273 19.2196 77.3801 21.1046H75.7242C75.6273 20.0123 74.7289 19.3429 73.4076 19.3429C72.0864 19.3429 71.188 20.0123 71.188 20.9812C71.188 21.7564 71.7605 22.2144 73.1698 22.5579L74.3765 22.8574C76.6226 23.3859 77.5563 24.2931 77.5563 25.8874C77.5563 27.9309 75.9268 29.2169 73.3284 29.2169C70.9061 29.2169 69.2678 27.9661 69.1621 25.9843L70.8357 25.9931Z" fill="black"/>
<path d="M81.0901 19.1841V21.069H82.6051V22.3638H81.0901V26.7679C81.0901 27.455 81.3896 27.772 82.059 27.772C82.2263 27.772 82.4906 27.772 82.5963 27.772V29.058C82.3055 29.1091 82.0106 29.1327 81.7155 29.1285C80.1036 29.1285 79.4694 28.5295 79.4694 26.9793V22.4079H78.2803V21.1131H79.443V19.2281L81.0901 19.1841Z" fill="black"/>
<path d="M89.379 25.0596C89.379 23.298 88.5951 22.3203 87.265 22.3203C85.935 22.3203 85.1511 23.3421 85.1511 25.0596C85.1511 26.7772 85.935 27.7902 87.265 27.7902C88.5951 27.7902 89.379 26.786 89.379 25.0596ZM83.4863 25.0596C83.4863 22.5493 84.9573 20.9727 87.265 20.9727C89.5728 20.9727 91.0437 22.5493 91.0437 25.0596C91.0437 27.57 89.5816 29.1466 87.265 29.1466C84.9485 29.1466 83.4863 27.5788 83.4863 25.0596Z" fill="black"/>
<path d="M92.3975 21.0697H93.9565V22.4262C94.063 22.0021 94.3118 21.6273 94.6612 21.3644C95.0107 21.1015 95.4397 20.9664 95.8767 20.9816C96.0662 20.983 96.2551 21.0036 96.4404 21.0433V22.5759C96.2004 22.5047 95.9507 22.472 95.7005 22.479C95.4633 22.4699 95.227 22.5121 95.0076 22.6028C94.7883 22.6935 94.5911 22.8306 94.4297 23.0046C94.2683 23.1786 94.1463 23.3854 94.0722 23.6109C93.9982 23.8364 93.9737 24.0753 94.0005 24.3111V29.0411H92.3975V21.1137V21.0697Z" fill="black"/>
<path d="M98.485 24.3198H102.475C102.49 24.0559 102.45 23.7918 102.358 23.5441C102.265 23.2963 102.123 23.0703 101.939 22.8801C101.756 22.69 101.535 22.5397 101.291 22.4389C101.046 22.338 100.784 22.2886 100.52 22.2939C100.253 22.2927 99.9886 22.3443 99.7417 22.4456C99.4949 22.5468 99.2706 22.6959 99.0815 22.8841C98.8925 23.0724 98.7424 23.2961 98.6401 23.5425C98.5377 23.7888 98.485 24.053 98.485 24.3198ZM104.017 26.698C103.796 28.1513 102.387 29.1466 100.59 29.1466C98.2648 29.1466 96.8291 27.5876 96.8291 25.0949C96.8291 22.6022 98.2736 20.9727 100.52 20.9727C102.766 20.9727 104.113 22.4877 104.113 24.9011V25.4648H98.4762V25.5617C98.4512 25.8556 98.4887 26.1514 98.5863 26.4297C98.6838 26.708 98.8393 26.9625 99.0423 27.1763C99.2454 27.3902 99.4914 27.5586 99.7643 27.6705C100.037 27.7824 100.331 27.8352 100.625 27.8254C101.014 27.8683 101.406 27.7808 101.739 27.5767C102.072 27.3726 102.328 27.0635 102.466 26.698H104.017Z" fill="black"/>
<path d="M40.0329 12.0934H40.7376C40.8618 12.1084 40.9878 12.0968 41.1072 12.0593C41.2266 12.0218 41.3366 11.9593 41.4299 11.876C41.5233 11.7926 41.5978 11.6904 41.6485 11.576C41.6992 11.4616 41.725 11.3377 41.7241 11.2126C41.7241 10.7281 41.363 10.411 40.7464 10.411C40.6218 10.3938 40.495 10.4016 40.3735 10.4342C40.252 10.4667 40.1383 10.5232 40.0389 10.6003C39.9396 10.6775 39.8567 10.7737 39.7952 10.8834C39.7337 10.9931 39.6947 11.114 39.6806 11.239H38.9143C38.9257 11.0131 38.9838 10.792 39.0849 10.5897C39.186 10.3873 39.3279 10.2081 39.5017 10.0633C39.6754 9.91852 39.8773 9.81127 40.0946 9.74832C40.3118 9.68537 40.5397 9.66809 40.764 9.69756C41.8034 9.69756 42.5256 10.2789 42.5256 11.1157C42.5262 11.3949 42.4313 11.6659 42.2567 11.8838C42.082 12.1017 41.8382 12.2533 41.5656 12.3136V12.3752C41.7264 12.382 41.8843 12.4205 42.0303 12.4884C42.1762 12.5563 42.3073 12.6523 42.4162 12.7709C42.525 12.8895 42.6093 13.0284 42.6644 13.1797C42.7194 13.331 42.7441 13.4916 42.737 13.6524C42.7162 13.8866 42.6487 14.1143 42.5386 14.322C42.4284 14.5297 42.2777 14.7133 42.0955 14.8619C41.9133 15.0105 41.7031 15.1211 41.4775 15.1872C41.2518 15.2532 41.0152 15.2735 40.7816 15.2467C39.6366 15.2467 38.8526 14.6301 38.8086 13.6877H39.5925C39.5925 14.1897 40.1034 14.5156 40.7816 14.5156C41.4599 14.5156 41.9091 14.1545 41.9091 13.6348C41.9091 13.1151 41.4863 12.754 40.7552 12.754H40.0329V12.0405V12.0934Z" fill="black"/>
<path d="M46.1901 13.6702V13.3355L45.2212 13.3971C44.6751 13.3971 44.4197 13.6173 44.4197 13.9696C44.4197 14.322 44.7368 14.5334 45.1596 14.5334C45.2855 14.5454 45.4126 14.532 45.5332 14.4939C45.6538 14.4558 45.7656 14.3938 45.8617 14.3116C45.9579 14.2294 46.0365 14.1287 46.093 14.0155C46.1494 13.9023 46.1824 13.7788 46.1901 13.6526V13.6702ZM43.6357 14.0049C43.6357 13.2914 44.173 12.8774 45.1155 12.8246L46.1901 12.7629V12.4194C46.1901 11.9966 45.9083 11.7588 45.371 11.7588C44.8337 11.7588 44.6311 11.9262 44.543 12.1992H43.7855C43.8736 11.521 44.5078 11.0806 45.415 11.0806C46.3222 11.0806 46.9652 11.5826 46.9652 12.4194V15.1235H46.2077V14.5686H46.1461C46.0212 14.769 45.8453 14.9326 45.6363 15.0425C45.4273 15.1524 45.1928 15.2047 44.957 15.194C44.7904 15.2112 44.622 15.1933 44.4627 15.1415C44.3034 15.0896 44.1568 15.0049 44.0323 14.8928C43.9078 14.7808 43.8082 14.6439 43.7399 14.4909C43.6716 14.338 43.6361 14.1724 43.6357 14.0049Z" fill="black"/>
<path d="M49.0437 11.8207V15.1326H48.2598V11.1689H50.8758V11.8207H49.0437Z" fill="black"/>
<path d="M54.8119 13.1417C54.8119 12.2608 54.4156 11.8028 53.7462 11.8028C53.0767 11.8028 52.6804 12.3137 52.6804 13.1417C52.6804 13.9696 53.0944 14.4893 53.7462 14.4893C54.398 14.4893 54.8119 13.9872 54.8119 13.1417ZM55.6135 13.1417C55.6135 14.4012 54.9793 15.194 53.9752 15.194C53.7296 15.2114 53.4842 15.1575 53.2686 15.0387C53.0529 14.92 52.8762 14.7414 52.7596 14.5245H52.6892V16.4447H51.9141V11.1598H52.6628V11.8204H52.7244C52.8438 11.5965 53.0233 11.4103 53.2427 11.2827C53.4621 11.1551 53.7127 11.0912 53.9664 11.0982C54.9793 11.0982 55.6135 11.8821 55.6135 13.1417Z" fill="black"/>
<path d="M56.6561 16.5508V15.8726H56.9116C57.0794 15.8862 57.2462 15.8369 57.3797 15.7344C57.5132 15.6318 57.6038 15.4833 57.6338 15.3177L57.6955 15.1239L56.2598 11.1426H57.1406L58.1359 14.2959H58.1976L59.1929 11.1426H60.0209L58.5411 15.2736C58.2064 16.2425 57.8276 16.5508 57.0173 16.5508H56.6914H56.6561Z" fill="black"/>
<path d="M60.5929 14.0053H61.3768C61.4472 14.3488 61.782 14.5338 62.2576 14.5338C62.7332 14.5338 63.1384 14.3047 63.1384 13.9436C63.1384 13.5825 62.8565 13.3799 62.2576 13.3799H61.6586V12.7721H62.1959C62.6628 12.7721 62.9094 12.596 62.9094 12.2612C62.9094 11.9265 62.7068 11.7239 62.1959 11.7239C61.6851 11.7239 61.4296 11.9089 61.3856 12.2172H60.6281C60.6908 11.8613 60.8894 11.5438 61.182 11.3317C61.4746 11.1197 61.8382 11.0297 62.1959 11.081C63.1384 11.081 63.6757 11.5126 63.6757 12.182C63.679 12.368 63.6188 12.5496 63.5052 12.6969C63.3915 12.8441 63.2311 12.9483 63.0503 12.9923V13.054C63.2652 13.0799 63.4629 13.1841 63.6059 13.3465C63.7489 13.509 63.827 13.7184 63.8254 13.9348C63.8254 14.6923 63.1825 15.1944 62.2047 15.1944C61.227 15.1944 60.6281 14.798 60.5576 13.9965L60.5929 14.0053Z" fill="black"/>
<path d="M64.9883 15.1326V11.1689H65.7634V13.8907H65.8251L67.6484 11.1689H68.4323V15.1326H67.6484V12.3845H67.5955L65.7634 15.1326H64.9883Z" fill="black"/>
<path d="M72.7024 11.8207H71.4517V15.1326H70.6678V11.8207H69.417V11.1689H72.7024V11.8207Z" fill="black"/>
<path d="M74.1645 12.7809H76.1639C76.1777 12.6455 76.1625 12.5086 76.1194 12.3795C76.0762 12.2503 76.006 12.1318 75.9136 12.0319C75.8211 11.9319 75.7084 11.8527 75.583 11.7997C75.4576 11.7466 75.3224 11.7208 75.1862 11.724C75.051 11.7228 74.9169 11.7487 74.7918 11.8002C74.6667 11.8516 74.5532 11.9276 74.458 12.0237C74.3627 12.1197 74.2877 12.2339 74.2373 12.3594C74.1869 12.4849 74.1621 12.6193 74.1645 12.7545V12.7809ZM76.9126 14.0581C76.8157 14.4289 76.5892 14.7527 76.2741 14.9709C75.959 15.189 75.5762 15.2871 75.195 15.2472C74.9321 15.2612 74.6694 15.2161 74.4262 15.1152C74.183 15.0142 73.9656 14.8601 73.7898 14.6641C73.6141 14.468 73.4845 14.2351 73.4106 13.9824C73.3367 13.7296 73.3204 13.4636 73.3629 13.2037C73.329 12.9435 73.3512 12.6791 73.4278 12.4282C73.5045 12.1772 73.6339 11.9455 73.8074 11.7487C73.9809 11.5518 74.1944 11.3944 74.4338 11.2868C74.6731 11.1792 74.9327 11.1241 75.195 11.125C76.2961 11.125 76.9567 11.8825 76.9567 13.1245V13.3975H74.1645C74.1522 13.5431 74.1705 13.6897 74.2182 13.8278C74.2659 13.966 74.342 14.0926 74.4415 14.1996C74.541 14.3066 74.6618 14.3916 74.7961 14.4491C74.9305 14.5067 75.0753 14.5355 75.2215 14.5338C75.4079 14.5553 75.5965 14.5216 75.7639 14.4371C75.9314 14.3526 76.0705 14.2208 76.1639 14.0581H76.9126Z" fill="black"/>
<path d="M81.0095 13.3627V14.5254H81.9432C82.4012 14.5254 82.6478 14.3228 82.6478 13.944C82.6478 13.5653 82.3659 13.3627 81.8463 13.3627H81.0095ZM81.0095 11.7596V12.7902H81.7846C82.2602 12.7902 82.4893 12.6052 82.4893 12.2705C82.4893 11.9358 82.2867 11.7596 81.8727 11.7596H81.0095ZM80.2344 11.1606H81.996C82.7711 11.1606 83.2291 11.557 83.2291 12.1736C83.235 12.3748 83.1718 12.5719 83.05 12.7322C82.9282 12.8925 82.7552 13.0062 82.5597 13.0544V13.1161C82.7933 13.1161 83.0174 13.2089 83.1826 13.374C83.3477 13.5392 83.4405 13.7633 83.4405 13.9969C83.4405 14.6839 82.9209 15.1331 82.0489 15.1331H80.2872V11.1695L80.2344 11.1606Z" fill="black"/>
</svg>
