<svg width="20" height="20" viewBox="0 0 20 20" fill="none" xmlns="http://www.w3.org/2000/svg">
<path fill-rule="evenodd" clip-rule="evenodd" d="M16 17H4C1.792 17 0 15.208 0 13C0 11.513 0.812997 10.214 2.019 9.525C2.007 9.351 2 9.176 2 9C2 5.137 5.137 2 9 2C11.822 2 14.257 3.674 15.364 6.082C15.567 6.028 15.78 6 16 6C17.38 6 18.5 7.12 18.5 8.5C18.5 8.921 18.396 9.319 18.211 9.667C19.289 10.384 20 11.61 20 13C20 15.208 18.208 17 16 17ZM16 16C17.656 16 19 14.656 19 13C19 11.957 18.466 11.038 17.657 10.5L16.904 9.999L17.327 9.199C17.438 8.99 17.5 8.752 17.5 8.5C17.5 7.672 16.828 7 16 7C15.868 7 15.74 7.017 15.618 7.049L14.806 7.262L14.455 6.5C13.506 4.435 11.419 3 9 3C5.689 3 3 5.689 3 9C3 9.152 3.006 9.302 3.017 9.451L3.063 10.08L2.516 10.393C1.611 10.91 1 11.884 1 13C1 14.656 2.344 16 4 16H16Z" fill="#141E2D"/>
<path d="M8.36111 13L6 10.5L8.36111 8" stroke="#141E2D" stroke-miterlimit="1.8314" stroke-linecap="round" stroke-linejoin="round"/>
<path d="M6 10.5H13.0002" stroke="#141E2D" stroke-miterlimit="1.8314" stroke-linecap="round" stroke-linejoin="round"/>
</svg>
