<svg width="20" height="20" viewBox="0 0 20 20" fill="none" xmlns="http://www.w3.org/2000/svg">
<path d="M0.499756 2H2.46074C2.9336 2 3.34185 2.332 3.43976 2.795C3.92731 5.118 5.34591 11.882 5.83346 14.205C5.93039 14.668 6.33864 15 6.8115 15C8.91248 15 14.5086 15 16.587 15C17.0511 15 17.4535 14.681 17.5602 14.229C17.9283 12.667 18.7653 9.115 19.2098 7.229C19.2803 6.932 19.2108 6.619 19.0209 6.379C18.8309 6.14 18.5421 6 18.2367 6C14.584 6 4.26409 6 4.26409 6" stroke="black" stroke-miterlimit="1.8314" stroke-linecap="round" stroke-linejoin="round"/>
<path d="M6.00024 13H17.4999" stroke="black" stroke-miterlimit="1.8314" stroke-linecap="round" stroke-linejoin="round"/>
<path d="M9 18C9.82843 18 10.5 17.3284 10.5 16.5C10.5 15.6716 9.82843 15 9 15C8.17157 15 7.5 15.6716 7.5 16.5C7.5 17.3284 8.17157 18 9 18Z" stroke="black" stroke-miterlimit="1.8314" stroke-linecap="round" stroke-linejoin="bevel"/>
<path d="M14.5 18C15.3284 18 16 17.3284 16 16.5C16 15.6716 15.3284 15 14.5 15C13.6716 15 13 15.6716 13 16.5C13 17.3284 13.6716 18 14.5 18Z" stroke="black" stroke-miterlimit="1.8314" stroke-linecap="round" stroke-linejoin="round"/>
</svg>
