<svg width="20" height="20" viewBox="0 0 20 20" fill="none" xmlns="http://www.w3.org/2000/svg">
<path fill-rule="evenodd" clip-rule="evenodd" d="M19.5 15.1659C19.5 14.0618 18.6022 13.1667 17.5002 13.1667C13.8522 13.1667 6.14776 13.1667 2.49976 13.1667C1.39776 13.1667 0.5 14.0618 0.5 15.1659V17.5008C0.5 18.6049 1.39776 19.5 2.49976 19.5C6.14776 19.5 13.8522 19.5 17.5002 19.5C18.6022 19.5 19.5 18.6049 19.5 17.5008V15.1659Z" stroke="#141E2D" stroke-width="0.855" stroke-miterlimit="1.8314" stroke-linecap="round" stroke-linejoin="round"/>
<path fill-rule="evenodd" clip-rule="evenodd" d="M19.5 8.83256C19.5 7.72845 18.6022 6.83334 17.5002 6.83334C13.8522 6.83334 6.14776 6.83334 2.49976 6.83334C1.39776 6.83334 0.5 7.72845 0.5 8.83256V11.1675C0.5 12.2716 1.39776 13.1667 2.49976 13.1667C6.14776 13.1667 13.8522 13.1667 17.5002 13.1667C18.6022 13.1667 19.5 12.2716 19.5 11.1675V8.83256Z" stroke="#141E2D" stroke-width="0.855" stroke-miterlimit="1.8314" stroke-linecap="round" stroke-linejoin="round"/>
<path fill-rule="evenodd" clip-rule="evenodd" d="M19.5 2.49922C19.5 1.39511 18.6022 0.5 17.5002 0.5C13.8522 0.5 6.14776 0.5 2.49976 0.5C1.39776 0.5 0.5 1.39511 0.5 2.49922V4.83411C0.5 5.93822 1.39776 6.83333 2.49976 6.83333C6.14776 6.83333 13.8522 6.83333 17.5002 6.83333C18.6022 6.83333 19.5 5.93822 19.5 4.83411V2.49922Z" stroke="#141E2D" stroke-width="0.855" stroke-miterlimit="1.8314" stroke-linecap="round" stroke-linejoin="round"/>
<path d="M2.99707 16.3333H14.497" stroke="#141E2D" stroke-width="1.00202" stroke-miterlimit="1.8314" stroke-linecap="round" stroke-linejoin="round"/>
<path d="M2.99976 10H10.4998" stroke="#141E2D" stroke-width="0.966096" stroke-miterlimit="1.8314" stroke-linecap="round" stroke-linejoin="round"/>
<path d="M2.99707 3.66669H14.497" stroke="#141E2D" stroke-width="1.00202" stroke-miterlimit="1.8314" stroke-linecap="round" stroke-linejoin="round"/>
</svg>
