<svg width="18" height="18" viewBox="0 0 18 18" fill="none" xmlns="http://www.w3.org/2000/svg">
<path fill-rule="evenodd" clip-rule="evenodd" d="M2.5575 12.8408C1.88625 11.7165 1.5 10.4033 1.5 9C1.5 4.86075 4.86075 1.5 9 1.5C13.1393 1.5 16.5 4.86075 16.5 9C16.5 10.1707 16.2315 11.2785 15.7522 12.2662C14.6137 14.613 12.288 16.2787 9.55726 16.4797C9.37351 16.4932 9.1875 16.5 9 16.5C8.59725 16.5 8.20126 16.4685 7.81501 16.407C5.58151 16.0515 3.675 14.709 2.5575 12.8408Z" stroke="#141E2D" stroke-miterlimit="1.8314" stroke-linejoin="round"/>
<path d="M5.75 11.25C6.7165 11.25 7.5 10.4665 7.5 9.5C7.5 8.5335 6.7165 7.75 5.75 7.75C4.7835 7.75 4 8.5335 4 9.5C4 10.4665 4.7835 11.25 5.75 11.25Z" stroke="#141E2D" stroke-miterlimit="1.8314" stroke-linejoin="round"/>
<path fill-rule="evenodd" clip-rule="evenodd" d="M8.30899 12.177C9.12299 11.012 10.473 10.25 12 10.25C13.566 10.25 14.946 11.052 15.752 12.266C14.614 14.613 12.288 16.279 9.55701 16.48C9.37301 16.493 9.187 16.5 9 16.5C8.597 16.5 8.201 16.468 7.815 16.407C7.612 15.894 7.5 15.335 7.5 14.75C7.5 13.793 7.79899 12.906 8.30899 12.177Z" stroke="#141E2D" stroke-miterlimit="1.8314" stroke-linecap="round" stroke-linejoin="round"/>
<path d="M9.55697 16.4793C9.37297 16.4936 9.1872 16.4998 8.99965 16.4998C8.59698 16.4998 8.20142 16.4678 7.81475 16.4064C5.58097 16.0518 3.67431 14.7087 2.55786 12.8402C3.28853 11.8749 4.44675 11.25 5.74986 11.25C6.7232 11.25 7.61475 11.5984 8.30897 12.1762" stroke="#141E2D" stroke-miterlimit="1.8314" stroke-linecap="round" stroke-linejoin="round"/>
<path d="M12 10.25C13.2426 10.25 14.25 9.24264 14.25 8C14.25 6.75736 13.2426 5.75 12 5.75C10.7574 5.75 9.75 6.75736 9.75 8C9.75 9.24264 10.7574 10.25 12 10.25Z" stroke="#141E2D" stroke-miterlimit="1.8314" stroke-linejoin="round"/>
</svg>
