<svg width="18" height="18" viewBox="0 0 18 18" fill="none" xmlns="http://www.w3.org/2000/svg">
<path d="M9.13306 16.5C13.2752 16.5 16.6331 13.1421 16.6331 9C16.6331 4.85786 13.2752 1.5 9.13306 1.5C4.99092 1.5 1.63306 4.85786 1.63306 9C1.63306 13.1421 4.99092 16.5 9.13306 16.5Z" stroke="#141E2D" stroke-miterlimit="1.8314" stroke-linecap="round" stroke-linejoin="round"/>
<path d="M9.13293 10.5C9.96136 10.5 10.6329 9.82843 10.6329 9C10.6329 8.17157 9.96136 7.5 9.13293 7.5C8.30451 7.5 7.63293 8.17157 7.63293 9C7.63293 9.82843 8.30451 10.5 9.13293 10.5Z" stroke="#141E2D" stroke-miterlimit="1.8314" stroke-linecap="round" stroke-linejoin="round"/>
<path fill-rule="evenodd" clip-rule="evenodd" d="M9.13262 1.5L11.4883 5.75857L16.2655 6.68285L12.944 10.2386L13.5412 15.0671L9.13262 13.0071L4.72406 15.0671L5.3212 10.2386L1.99976 6.68285L6.77693 5.75857L9.13262 1.5Z" stroke="#141E2D" stroke-miterlimit="1.8314" stroke-linecap="round" stroke-linejoin="round"/>
</svg>
