<svg width="20" height="20" viewBox="0 0 20 20" fill="none" xmlns="http://www.w3.org/2000/svg">
<path fill-rule="evenodd" clip-rule="evenodd" d="M1.98358 15.0968C1.04466 13.6235 0.5 11.8747 0.5 10C0.5 8.27971 0.958378 6.66471 1.75954 5.27217C3.3413 2.5235 6.25858 0.639333 9.62237 0.507125C9.74746 0.502375 9.87334 0.5 10 0.5C10.1267 0.5 10.2525 0.502375 10.3776 0.507125C13.7414 0.639333 16.6587 2.5235 18.2405 5.27217C19.0416 6.66471 19.5 8.27971 19.5 10C19.5 11.8747 18.9553 13.6235 18.0164 15.0968C16.3927 17.6435 13.5886 19.367 10.3776 19.4929C10.2525 19.4976 10.1267 19.5 10 19.5C9.87334 19.5 9.74746 19.4976 9.62237 19.4929C6.41137 19.367 3.60729 17.6435 1.98358 15.0968Z" stroke="#141E2D" stroke-miterlimit="1.8314" stroke-linecap="round" stroke-linejoin="round"/>
<path fill-rule="evenodd" clip-rule="evenodd" d="M5.78083 15.0968C5.28666 13.6235 5 11.8747 5 10C5 8.27971 5.24125 6.66471 5.66292 5.27217C6.49542 2.5235 8.03083 0.639333 9.80125 0.507125C9.86708 0.502375 9.93334 0.5 10 0.5C10.0667 0.5 10.1329 0.502375 10.1988 0.507125C11.9692 0.639333 13.5046 2.5235 14.3371 5.27217C14.7588 6.66471 15 8.27971 15 10C15 11.8747 14.7133 13.6235 14.2192 15.0968C13.3646 17.6435 11.8888 19.367 10.1988 19.4929C10.1329 19.4976 10.0667 19.5 10 19.5C9.93334 19.5 9.86708 19.4976 9.80125 19.4929C8.11125 19.367 6.63542 17.6435 5.78083 15.0968Z" stroke="#141E2D" stroke-miterlimit="1.8314" stroke-linecap="round" stroke-linejoin="round"/>
<path fill-rule="evenodd" clip-rule="evenodd" d="M15.0968 14.2191C13.6235 14.7133 11.8747 14.9999 10 14.9999C8.27971 14.9999 6.66471 14.7587 5.27217 14.337C2.5235 13.5045 0.639333 11.9691 0.507125 10.1987C0.502375 10.1329 0.5 10.0666 0.5 9.99994C0.5 9.93327 0.502375 9.86702 0.507125 9.80118C0.639333 8.03076 2.5235 6.49535 5.27217 5.66285C6.66471 5.24118 8.27971 4.99993 10 4.99993C11.8747 4.99993 13.6235 5.2866 15.0968 5.78076C17.6435 6.63535 19.367 8.11118 19.4929 9.80118C19.4976 9.86702 19.5 9.93327 19.5 9.99994C19.5 10.0666 19.4976 10.1329 19.4929 10.1987C19.367 11.8887 17.6435 13.3645 15.0968 14.2191Z" stroke="#141E2D" stroke-miterlimit="1.8314" stroke-linecap="round" stroke-linejoin="round"/>
<path d="M0.5 10H19.5" stroke="#141E2D" stroke-miterlimit="1.8314" stroke-linecap="round" stroke-linejoin="round"/>
<path d="M10 0.5V19.5" stroke="#141E2D" stroke-miterlimit="1.8314" stroke-linecap="round" stroke-linejoin="round"/>
</svg>
