<svg width="18" height="18" viewBox="0 0 18 18" fill="none" xmlns="http://www.w3.org/2000/svg">
<path fill-rule="evenodd" clip-rule="evenodd" d="M17.4993 13.4996V4.50038C17.4993 3.96981 17.2883 3.46119 16.9133 3.08581C16.5383 2.71044 16.0293 2.5 15.4993 2.5H2.49927C1.96927 2.5 1.46027 2.71044 1.08527 3.08581C0.710266 3.46119 0.499268 3.96981 0.499268 4.50038V13.4996C0.499268 14.0302 0.710266 14.5388 1.08527 14.9142C1.46027 15.2896 1.96927 15.5 2.49927 15.5H15.4993C16.0293 15.5 16.5383 15.2896 16.9133 14.9142C17.2883 14.5388 17.4993 14.0302 17.4993 13.4996Z" stroke="#141E2D" stroke-miterlimit="1.8314" stroke-linejoin="round"/>
<path fill-rule="evenodd" clip-rule="evenodd" d="M17.4996 5.5H8.49972C7.96885 5.5 7.46094 5.71108 7.08502 6.08585C6.71007 6.46061 6.49963 6.97 6.49963 7.49984C6.49963 8.44107 6.49963 9.55892 6.49963 10.5001C6.49963 11.03 6.71007 11.5394 7.08502 11.9141C7.46094 12.2889 7.96885 12.5 8.49972 12.5C11.6715 12.5 17.4996 12.5 17.4996 12.5V5.5Z" stroke="#141E2D" stroke-miterlimit="1.8314" stroke-linecap="round" stroke-linejoin="round"/>
<path d="M9.99927 10.5C10.8277 10.5 11.4993 9.82842 11.4993 9C11.4993 8.17157 10.8277 7.5 9.99927 7.5C9.17084 7.5 8.49927 8.17157 8.49927 9C8.49927 9.82842 9.17084 10.5 9.99927 10.5Z" stroke="#141E2D" stroke-miterlimit="1.8314" stroke-linecap="round" stroke-linejoin="round"/>
<path d="M3.49951 2.5V15.5" stroke="#141E2D" stroke-miterlimit="1.8314" stroke-linecap="round" stroke-linejoin="round"/>
</svg>
