<svg width="122" height="40" viewBox="0 0 122 40" fill="none" xmlns="http://www.w3.org/2000/svg">
<rect x="0.35" y="0.35" width="121.3" height="39.3" rx="5.65" fill="white" stroke="#A6A6A6" stroke-width="0.7"/>
<path d="M37.1878 10.863C37.2288 11.5713 37.0543 12.2754 36.6873 12.8827H39.3217V8.9047H37.1878V10.863ZM35.976 14.6478H35.3262V12.8915H35.8443C36.0965 12.6242 36.287 12.3047 36.4024 11.9557C36.5177 11.6068 36.555 11.2367 36.5117 10.8717V8.2373H40.0242V12.8563H40.6126V14.6126H39.9628V13.4974H35.9672V14.6126L35.976 14.6478Z" fill="#010100"/>
<path d="M37.1897 10.8634H37.1018V10.9424C37.135 11.6061 36.9667 12.2643 36.6189 12.8304L36.5311 12.971H39.4465V8.81733H37.1018V10.8634H37.2775V8.99296H39.2709V12.7953H36.6891V12.8831L36.7681 12.9358C37.1331 12.3371 37.3105 11.6428 37.2775 10.9424V10.8634H37.1897ZM35.9778 14.6482V14.5604H35.4334V12.971H35.8988C36.157 12.7047 36.3537 12.3851 36.4751 12.0346C36.5965 11.6842 36.6396 11.3114 36.6013 10.9424V10.881V8.36948H39.947V12.9885H40.5354V14.578H40.0612V13.4627H35.89V14.6658H35.9778H36.0656V13.6383H39.8241V14.7536H40.6496V12.8129H40.0612V8.19385H36.3642V10.881V10.9424C36.4009 11.2848 36.3625 11.6311 36.2518 11.9571C36.1411 12.2832 35.9607 12.5812 35.7232 12.8304L35.7846 12.9007V12.8129H35.1787V14.7536H36.0042V14.6658L35.9778 14.6482Z" fill="#010100"/>
<path d="M42.5105 12.4087C42.6956 12.6002 42.9183 12.7513 43.1647 12.8525C43.411 12.9538 43.6756 13.003 43.9418 12.9971C44.2081 13.003 44.4727 12.9538 44.719 12.8525C44.9653 12.7513 45.1881 12.6002 45.3732 12.4087C45.5669 12.2088 45.7187 11.9723 45.8198 11.7129C45.9208 11.4535 45.969 11.1766 45.9616 10.8983C45.9702 10.6186 45.9226 10.34 45.8215 10.079C45.7204 9.81808 45.568 9.58007 45.3732 9.37914C45.1881 9.1877 44.9653 9.03662 44.719 8.93537C44.4727 8.83412 44.2081 8.7849 43.9418 8.79078C43.6756 8.7849 43.411 8.83412 43.1647 8.93537C42.9183 9.03662 42.6956 9.1877 42.5105 9.37914C42.3157 9.58007 42.1632 9.81808 42.0622 10.079C41.9611 10.34 41.9135 10.6186 41.9221 10.8983C41.9147 11.1766 41.9629 11.4535 42.0639 11.7129C42.1649 11.9723 42.3168 12.2088 42.5105 12.4087ZM45.8738 12.8478C45.6256 13.1088 45.3254 13.3148 44.9926 13.4524C44.6598 13.5901 44.3019 13.6563 43.9418 13.6469C43.5818 13.6563 43.2238 13.5901 42.8911 13.4524C42.5583 13.3148 42.2581 13.1088 42.0099 12.8478C41.7566 12.5916 41.5576 12.2868 41.4248 11.9518C41.292 11.6169 41.2282 11.2585 41.2372 10.8983C41.2285 10.5368 41.2925 10.1773 41.4252 9.84092C41.5579 9.50457 41.7567 9.19825 42.0099 8.94007C42.2604 8.68208 42.561 8.47809 42.8932 8.34066C43.2255 8.20323 43.5823 8.13527 43.9418 8.14095C44.302 8.1364 44.6592 8.20575 44.9915 8.3447C45.3238 8.48366 45.6241 8.68928 45.8738 8.94885C46.1271 9.2051 46.3261 9.50984 46.4589 9.84481C46.5916 10.1798 46.6555 10.5381 46.6465 10.8983C46.6555 11.2585 46.5916 11.6169 46.4589 11.9518C46.3261 12.2868 46.1271 12.5916 45.8738 12.8478Z" fill="#010100"/>
<path d="M42.5094 12.4088L42.4567 12.5054C42.6495 12.7054 42.8818 12.8633 43.1387 12.9691C43.3956 13.0749 43.6717 13.1263 43.9495 13.1201C44.2273 13.1263 44.5034 13.0749 44.7603 12.9691C45.0173 12.8633 45.2495 12.7054 45.4424 12.5054C45.6447 12.2977 45.8033 12.0517 45.9089 11.7817C46.0145 11.5117 46.0648 11.2233 46.0571 10.9335C46.065 10.6424 46.0148 10.3526 45.9092 10.0811C45.8036 9.80971 45.6449 9.56209 45.4424 9.35284C45.2485 9.15407 45.0161 8.99701 44.7594 8.8913C44.5027 8.7856 44.2271 8.73348 43.9495 8.73814C43.6719 8.73348 43.3963 8.7856 43.1396 8.8913C42.8829 8.99701 42.6505 9.15407 42.4567 9.35284C42.2541 9.56209 42.0954 9.80971 41.9898 10.0811C41.8843 10.3526 41.834 10.6424 41.842 10.9335C41.8342 11.2233 41.8846 11.5117 41.9902 11.7817C42.0957 12.0517 42.2544 12.2977 42.4567 12.5054L42.5181 12.4439L42.5796 12.3824C42.3953 12.1897 42.2508 11.9625 42.1543 11.7139C42.0579 11.4653 42.0114 11.2001 42.0176 10.9335C42.0057 10.3925 42.2077 9.86874 42.5796 9.47578C42.7567 9.29253 42.9699 9.14797 43.2057 9.05124C43.4415 8.95451 43.6947 8.9077 43.9495 8.91377C44.2043 8.9077 44.4576 8.95451 44.6933 9.05124C44.9291 9.14797 45.1423 9.29253 45.3194 9.47578C45.5056 9.66898 45.6512 9.89748 45.7478 10.1478C45.8443 10.3982 45.8897 10.6653 45.8814 10.9335C45.8895 11.2003 45.844 11.4661 45.7474 11.715C45.6509 11.9639 45.5053 12.1909 45.3194 12.3824C45.1423 12.5657 44.9291 12.7102 44.6933 12.807C44.4576 12.9037 44.2043 12.9505 43.9495 12.9444C43.6947 12.9505 43.4415 12.9037 43.2057 12.807C42.9699 12.7102 42.7567 12.5657 42.5796 12.3824L42.5181 12.4439L42.5094 12.4088ZM45.8726 12.8479L45.8112 12.7864C45.5707 13.0388 45.28 13.2379 44.9579 13.371C44.6357 13.5041 44.2892 13.5682 43.9407 13.5591C43.5923 13.5677 43.246 13.5033 42.9239 13.3703C42.6018 13.2372 42.3111 13.0383 42.0703 12.7864C41.8272 12.5367 41.636 12.2413 41.5079 11.9172C41.3798 11.5931 41.3172 11.2468 41.3239 10.8984C41.316 10.5485 41.378 10.2005 41.5062 9.87486C41.6343 9.54919 41.8261 9.25231 42.0703 9.00158C42.3111 8.74964 42.6018 8.55077 42.9239 8.4177C43.246 8.28463 43.5923 8.2203 43.9407 8.22882C44.2897 8.22196 44.6363 8.28793 44.9583 8.42249C45.2804 8.55706 45.5708 8.75727 45.8112 9.01036C46.0543 9.26005 46.2454 9.55549 46.3736 9.87958C46.5017 10.2037 46.5642 10.5499 46.5576 10.8984C46.5642 11.2468 46.5017 11.5931 46.3736 11.9172C46.2454 12.2413 46.0543 12.5367 45.8112 12.7864L45.8726 12.8479L45.9341 12.9093C46.1973 12.6463 46.4039 12.3322 46.5413 11.9864C46.6788 11.6406 46.7441 11.2703 46.7332 10.8984C46.7441 10.5264 46.6788 10.1562 46.5413 9.81038C46.4039 9.46457 46.1973 9.15049 45.9341 8.88742C45.6837 8.60738 45.3762 8.38414 45.0324 8.23268C44.6886 8.08122 44.3164 8.00505 43.9407 8.00928C43.5695 8.0022 43.2009 8.07186 42.8579 8.2139C42.5148 8.35594 42.2049 8.5673 41.9473 8.83473C41.686 9.10094 41.4806 9.41682 41.3434 9.76372C41.2061 10.1106 41.1398 10.4815 41.1482 10.8545C41.1395 11.2262 41.2057 11.5958 41.343 11.9413C41.4803 12.2868 41.6858 12.6011 41.9473 12.8654C42.2025 13.1359 42.5121 13.3493 42.8557 13.4916C43.1992 13.6338 43.569 13.7018 43.9407 13.6909C44.3124 13.7018 44.6822 13.6338 45.0258 13.4916C45.3694 13.3493 45.6789 13.1359 45.9341 12.8654L45.8726 12.8039V12.8479Z" fill="#010100"/>
<path d="M50.0624 13.6467C49.6992 13.6572 49.3377 13.5924 49.0007 13.4563C48.6636 13.3203 48.3584 13.1161 48.1042 12.8564C47.8461 12.6014 47.6434 12.2958 47.509 11.9588C47.3745 11.6219 47.311 11.2607 47.3226 10.8981C47.313 10.5344 47.3772 10.1725 47.5116 9.8344C47.6459 9.49628 47.8475 9.18896 48.1042 8.93107C48.3584 8.67139 48.6636 8.46712 49.0007 8.33111C49.3377 8.19509 49.6992 8.13028 50.0624 8.14074C50.4297 8.13292 50.794 8.20779 51.1284 8.35979C51.4628 8.51179 51.7588 8.73705 51.9944 9.01888L51.5202 9.47552C51.3476 9.25657 51.1254 9.08184 50.8719 8.96579C50.6184 8.84973 50.341 8.79569 50.0624 8.80813C49.793 8.80163 49.5249 8.84962 49.2745 8.94921C49.024 9.0488 48.7962 9.19795 48.6047 9.38771C48.4063 9.58785 48.2516 9.82698 48.1503 10.09C48.049 10.353 48.0034 10.6341 48.0164 10.9157C48.0066 11.1929 48.0537 11.4692 48.1549 11.7275C48.2561 11.9858 48.4092 12.2205 48.6047 12.4173C48.7962 12.6071 49.024 12.7562 49.2745 12.8558C49.5249 12.9554 49.793 13.0034 50.0624 12.9969C50.3717 12.9982 50.6773 12.9302 50.9569 12.798C51.2365 12.6658 51.483 12.4727 51.6782 12.2329L52.1524 12.7071C51.9136 12.9972 51.6138 13.2311 51.2743 13.392C50.9054 13.562 50.5037 13.649 50.0976 13.6467H50.0624Z" fill="#010100"/>
<path d="M50.061 13.6473V13.5595C49.7106 13.5695 49.362 13.5067 49.037 13.3752C48.7121 13.2437 48.4179 13.0464 48.173 12.7955C47.9224 12.5487 47.7252 12.2529 47.5938 11.9266C47.4623 11.6003 47.3995 11.2504 47.409 10.8987C47.3993 10.5457 47.4621 10.1945 47.5935 9.86674C47.7249 9.53898 47.9221 9.24165 48.173 8.99316C48.4179 8.74233 48.7121 8.54495 49.037 8.41346C49.362 8.28197 49.7106 8.21922 50.061 8.22917C50.4143 8.2177 50.7656 8.28687 51.0882 8.43142C51.4107 8.57597 51.6961 8.7921 51.9227 9.06341L51.9929 9.00194L51.9315 8.94047L51.4573 9.3971L51.5187 9.45857L51.589 9.40589C51.4068 9.17764 51.1737 8.99521 50.9084 8.87322C50.6431 8.75123 50.3529 8.69306 50.061 8.70337C49.7801 8.69704 49.5007 8.74744 49.2397 8.85155C48.9787 8.95566 48.7413 9.11134 48.5418 9.30929C48.3339 9.5165 48.1718 9.76503 48.0659 10.0388C47.96 10.3126 47.9128 10.6055 47.9271 10.8987C47.9134 11.1905 47.9611 11.482 48.067 11.7542C48.1728 12.0265 48.3346 12.2735 48.5418 12.4794C48.7413 12.6773 48.9787 12.833 49.2397 12.9371C49.5007 13.0412 49.7801 13.0916 50.061 13.0853C50.3818 13.087 50.699 13.0168 50.9892 12.8801C51.2794 12.7433 51.5353 12.5434 51.7383 12.295L51.6768 12.2335L51.6153 12.295L52.0808 12.7692L52.151 12.7077L52.0808 12.6462C51.8399 12.9298 51.5403 13.1575 51.2026 13.3136C50.8453 13.48 50.4552 13.564 50.061 13.5595V13.7351C50.4823 13.7376 50.8989 13.6477 51.2817 13.4717C51.6405 13.3059 51.9583 13.0631 52.2125 12.7604L52.2652 12.6989L51.7383 12.172L51.668 12.1106L51.6066 12.1808C51.4203 12.4107 51.1847 12.5956 50.9171 12.7218C50.6495 12.848 50.3569 12.9122 50.061 12.9097C49.803 12.9169 49.5461 12.8715 49.3061 12.7764C49.0661 12.6813 48.8479 12.5384 48.6648 12.3565C48.4752 12.1657 48.3274 11.9376 48.2306 11.6866C48.1339 11.4357 48.0903 11.1674 48.1028 10.8987C48.0902 10.6287 48.1336 10.3591 48.2303 10.1067C48.327 9.85428 48.475 9.62465 48.6648 9.43223C48.8479 9.25024 49.0661 9.10736 49.3061 9.01226C49.5461 8.91716 49.803 8.87182 50.061 8.879C50.3266 8.86758 50.5911 8.9198 50.8325 9.03131C51.0738 9.14282 51.285 9.31038 51.4485 9.52004L51.51 9.5903L52.0544 9.06341L52.1159 8.99316L52.0632 8.93169C51.816 8.64535 51.5079 8.4179 51.1615 8.26596C50.8151 8.11402 50.4391 8.04145 50.061 8.05354C49.6865 8.04484 49.3141 8.11279 48.9668 8.25323C48.6195 8.39367 48.3045 8.60363 48.0413 8.87022C47.776 9.13583 47.5676 9.45265 47.4287 9.80139C47.2898 10.1501 47.2234 10.5235 47.2334 10.8987C47.2241 11.2726 47.2909 11.6444 47.4298 11.9916C47.5686 12.3388 47.7767 12.6542 48.0413 12.9185C48.3045 13.1851 48.6195 13.395 48.9668 13.5355C49.3141 13.6759 49.6865 13.7438 50.061 13.7351V13.6473Z" fill="#010100"/>
<path d="M54.8839 13.5242H54.2077V8.9052H52.7412V8.25537H56.3592V8.9052H54.8839V13.5242Z" fill="#010100"/>
<path d="M54.8828 13.5237V13.4359H54.2945V8.81682H52.828V8.34262H56.2703V8.81682H54.795V13.5237H54.8828V13.4359V13.5237H54.9706V8.99245H56.4459V8.25481V8.16699H52.6523V8.90463V8.99245H54.1188V13.6115H54.8828H54.9706V13.5237H54.8828Z" fill="#010100"/>
<path d="M61.0052 8.26416L59.0118 12.7076C58.931 12.9732 58.7689 13.2067 58.5483 13.3753C58.3278 13.5439 58.0599 13.639 57.7824 13.6472C57.6037 13.6447 57.4274 13.6058 57.2643 13.533L57.4399 12.9008C57.5452 12.9663 57.6672 12.9998 57.7912 12.9974C57.9201 13.0059 58.0487 12.9753 58.16 12.9095C58.2613 12.816 58.3421 12.7024 58.3971 12.5759L58.5903 12.1543L56.834 8.26416H57.6243L58.924 11.285L60.1973 8.26416H61.0052Z" fill="#010100"/>
<path d="M61.0041 8.26356H60.9251L58.9317 12.707C58.8563 12.9555 58.7046 13.174 58.4982 13.3316C58.2917 13.4892 58.0409 13.5779 57.7813 13.5851C57.614 13.5821 57.4493 13.5432 57.2983 13.471V13.5588H57.3774L57.553 12.9353H57.474V13.0143C57.594 13.0839 57.7304 13.1203 57.8691 13.1197C58.0145 13.13 58.1592 13.093 58.2819 13.0143C58.4011 12.9153 58.4946 12.7887 58.5541 12.6455L58.7473 12.224L56.991 8.42163H57.5969L58.8966 11.4424H59.0371L60.3104 8.42163H61.048V8.33382H60.969H61.048V8.246H60.1699L58.879 11.3195H58.958V11.2317V11.3195H59.0458L57.7198 8.246H56.7275L58.5453 12.224L58.3697 12.6104C58.3211 12.7236 58.2493 12.8253 58.1589 12.9089C58.0624 12.9619 57.9527 12.9863 57.8428 12.9792C57.7353 12.979 57.6296 12.9519 57.5354 12.9002L57.3861 12.7684L57.1754 13.5061V13.5763H57.2456C57.4203 13.6529 57.6082 13.6947 57.7989 13.6993C58.0935 13.692 58.3783 13.5923 58.6132 13.4142C58.848 13.2361 59.0208 12.9887 59.1073 12.707L61.1622 8.14062H61.0217V8.22844L61.0041 8.26356Z" fill="#010100"/>
<path d="M61.7764 13.5242V8.25537H65.5875V13.5242H64.9113V8.9052H62.4525V13.5242H61.7764Z" fill="#010100"/>
<path d="M61.7753 13.5237H61.8631V8.34262H65.4986V13.4359H64.9981V8.81682H62.3637V13.4359H61.7753V13.5237H61.8631H61.7753V13.6115H62.4515H62.5393V8.99245H64.8225V13.6115H65.5865H65.6743V8.16699H61.6875V13.6115H61.7753V13.5237Z" fill="#010100"/>
<path d="M66.792 13.5242V8.25537H67.4682V10.521H70.1026V8.25537H70.7788V13.5242H70.1026V11.1532H67.4682V13.5242H66.792Z" fill="#010100"/>
<path d="M66.79 13.5237H66.8778V8.34262H67.3783V10.6082H70.1884V8.34262H70.6889V13.4359H70.1884V11.0649H67.3783V13.4359H66.79V13.5237H66.8778H66.79V13.6115H67.4661H67.5539V11.2405H70.0127V13.6115H70.7767H70.8645V8.16699H70.1006H70.0127V10.4326H67.5539V8.16699H66.79H66.7021V13.6115H66.79V13.5237Z" fill="#010100"/>
<path d="M72.9294 12.409C73.1149 12.6 73.3377 12.7508 73.5839 12.852C73.8302 12.9532 74.0946 13.0027 74.3608 12.9974C74.633 13.0093 74.9047 12.963 75.1576 12.8615C75.4105 12.7601 75.6388 12.6058 75.8273 12.409C76.0226 12.2103 76.1755 11.9739 76.2767 11.7143C76.3778 11.4546 76.4251 11.1771 76.4156 10.8986C76.4263 10.6186 76.3796 10.3395 76.2784 10.0782C76.1773 9.81695 76.0237 9.57914 75.8273 9.3794C75.6428 9.18711 75.4202 9.03545 75.1737 8.93414C74.9272 8.83283 74.6623 8.78409 74.3959 8.79105C74.1297 8.78569 73.8653 8.83516 73.619 8.93638C73.3728 9.03759 73.15 9.1884 72.9645 9.3794C72.7587 9.57517 72.5948 9.81085 72.4831 10.0721C72.3714 10.3333 72.3141 10.6145 72.3147 10.8986C72.3056 11.1763 72.3522 11.453 72.4517 11.7124C72.5513 11.9718 72.7017 12.2087 72.8943 12.409H72.9294ZM76.2927 12.8481C76.0445 13.1091 75.7444 13.315 75.4116 13.4527C75.0788 13.5903 74.7208 13.6566 74.3608 13.6472C74.0008 13.6561 73.643 13.5896 73.3103 13.4519C72.9776 13.3143 72.6774 13.1086 72.4289 12.8481C72.1755 12.5918 71.9765 12.2871 71.8438 11.9521C71.711 11.6171 71.6471 11.2588 71.6561 10.8986C71.6475 10.5371 71.7114 10.1775 71.8441 9.84119C71.9769 9.50484 72.1757 9.19851 72.4289 8.94033C72.6793 8.68235 72.9799 8.47836 73.3122 8.34093C73.6444 8.2035 74.0013 8.13553 74.3608 8.14122C74.7214 8.13347 75.0796 8.20136 75.4123 8.3405C75.7451 8.47965 76.045 8.68698 76.2927 8.94912C76.5472 9.20494 76.7476 9.5094 76.8818 9.84433C77.0161 10.1793 77.0815 10.5378 77.0742 10.8986C77.0815 11.2594 77.0161 11.6179 76.8818 11.9529C76.7476 12.2878 76.5472 12.5923 76.2927 12.8481Z" fill="#010100"/>
<path d="M72.928 12.4088L72.8665 12.4702C73.0597 12.6699 73.292 12.8275 73.5489 12.9332C73.8057 13.039 74.0816 13.0907 74.3594 13.0849C74.6303 13.0921 74.8998 13.0445 75.1518 12.9449C75.4038 12.8453 75.6331 12.6958 75.8259 12.5054C76.0298 12.2989 76.1895 12.0531 76.2952 11.7828C76.4009 11.5125 76.4504 11.2235 76.4406 10.9335C76.4506 10.6421 76.4012 10.3518 76.2955 10.08C76.1899 9.80832 76.0301 9.56091 75.8259 9.35283C75.6321 9.15406 75.3997 8.997 75.1429 8.8913C74.8862 8.78559 74.6106 8.73347 74.333 8.73813C74.0556 8.7345 73.7803 8.78709 73.5237 8.89273C73.2671 8.99838 73.0346 9.15489 72.8402 9.35283C72.6388 9.56252 72.4814 9.81041 72.3774 10.0819C72.2733 10.3534 72.2246 10.6429 72.2343 10.9335C72.2283 11.2246 72.2812 11.5139 72.3899 11.784C72.4985 12.0541 72.6606 12.2995 72.8665 12.5054L72.928 12.4439L72.9895 12.3824C72.8047 12.1904 72.6605 11.9632 72.5655 11.7142C72.4704 11.4653 72.4265 11.1998 72.4362 10.9335C72.4268 10.6659 72.4708 10.3992 72.5658 10.1488C72.6608 9.89851 72.8049 9.66969 72.9895 9.47577C73.1666 9.29252 73.3797 9.14797 73.6155 9.05124C73.8513 8.9545 74.1046 8.90769 74.3594 8.91376C74.6142 8.90716 74.8677 8.95372 75.1035 9.05049C75.3394 9.14725 75.5525 9.29209 75.7293 9.47577C75.9171 9.66779 76.0639 9.89609 76.1605 10.1467C76.2571 10.3974 76.3016 10.6651 76.2913 10.9335C76.3014 11.2006 76.2568 11.4669 76.1602 11.7161C76.0635 11.9653 75.9169 12.1921 75.7293 12.3824C75.5525 12.5661 75.3394 12.711 75.1035 12.8077C74.8677 12.9045 74.6142 12.951 74.3594 12.9444C74.1046 12.9505 73.8513 12.9037 73.6155 12.807C73.3797 12.7102 73.1666 12.5657 72.9895 12.3824L72.928 12.4439V12.4088ZM76.2913 12.8478L76.2298 12.7864C75.99 13.0396 75.6995 13.2394 75.3771 13.3726C75.0548 13.5057 74.708 13.5693 74.3594 13.5591C74.0122 13.5686 73.6668 13.5047 73.346 13.3715C73.0252 13.2384 72.7361 13.039 72.4977 12.7864C72.2502 12.5395 72.0555 12.2448 71.9257 11.9201C71.7958 11.5955 71.7335 11.2479 71.7425 10.8984C71.7316 10.546 71.793 10.1952 71.9229 9.86742C72.0528 9.53969 72.2484 9.24203 72.4977 8.99279C72.7361 8.74021 73.0252 8.54082 73.346 8.40765C73.6668 8.27449 74.0122 8.21055 74.3594 8.22003C74.7083 8.21317 75.0549 8.27914 75.377 8.4137C75.699 8.54827 75.9895 8.74848 76.2298 9.00157C76.4745 9.25054 76.6673 9.54566 76.7969 9.86978C76.9266 10.1939 76.9905 10.5405 76.985 10.8896C76.9905 11.2386 76.9266 11.5853 76.7969 11.9094C76.6673 12.2335 76.4745 12.5286 76.2298 12.7776L76.2913 12.8391L76.3615 12.9005C76.6214 12.6351 76.8259 12.3206 76.9631 11.9753C77.1003 11.6301 77.1674 11.261 77.1606 10.8896C77.1683 10.5173 77.1007 10.1473 76.9618 9.8017C76.823 9.45615 76.6158 9.14219 76.3528 8.87863C76.1023 8.59859 75.7949 8.37535 75.4511 8.22389C75.1073 8.07243 74.735 7.99626 74.3594 8.00049C73.9882 7.99341 73.6195 8.06307 73.2765 8.20511C72.9335 8.34715 72.6235 8.55852 72.366 8.82595C72.1066 9.0936 71.9026 9.40973 71.7654 9.75629C71.6283 10.1028 71.5608 10.473 71.5669 10.8457C71.5601 11.2171 71.6272 11.5862 71.7644 11.9314C71.9016 12.2767 72.1061 12.5912 72.366 12.8566C72.6212 13.1271 72.9307 13.3405 73.2743 13.4828C73.6179 13.6251 73.9877 13.693 74.3594 13.6821C74.7321 13.6909 75.1026 13.6221 75.4473 13.48C75.792 13.3379 76.1033 13.1256 76.3615 12.8566L76.2913 12.7952V12.8478Z" fill="#010100"/>
<path d="M80.516 12.8826H81.8771C81.9962 12.8878 82.115 12.866 82.2245 12.8189C82.334 12.7718 82.4314 12.7005 82.5094 12.6103C82.6642 12.4498 82.7521 12.2363 82.7553 12.0132C82.7476 11.792 82.6566 11.5819 82.5006 11.4248C82.417 11.3371 82.316 11.2676 82.2042 11.2207C82.0924 11.1739 81.972 11.1507 81.8508 11.1526H80.516V12.9089V12.8826ZM80.516 10.5204H81.7454C81.8601 10.524 81.9742 10.5032 82.0802 10.4592C82.1862 10.4153 82.2816 10.3494 82.3601 10.2657C82.4327 10.193 82.4902 10.1067 82.5293 10.0118C82.5685 9.91688 82.5886 9.81516 82.5884 9.71247C82.5883 9.50684 82.5098 9.30899 82.3689 9.15924C82.2938 9.07602 82.2015 9.01013 82.0984 8.96616C81.9953 8.92219 81.8838 8.90117 81.7718 8.90458H80.516V10.5204ZM79.8398 13.5324V8.26353H81.7454C82.1412 8.25515 82.525 8.39986 82.8168 8.66748C82.963 8.79521 83.0797 8.95331 83.1585 9.13076C83.2374 9.30822 83.2766 9.50074 83.2734 9.6949C83.2779 9.93034 83.2071 10.1611 83.0714 10.3535C82.9468 10.5487 82.7663 10.7017 82.5533 10.7926C82.8075 10.8779 83.0307 11.0368 83.1944 11.2492C83.3626 11.4647 83.4524 11.7311 83.449 12.0044C83.4535 12.2069 83.4133 12.4078 83.3314 12.593C83.2494 12.7781 83.1277 12.943 82.9748 13.0758C82.6676 13.3555 82.2663 13.5092 81.8508 13.506L79.8398 13.5324Z" fill="#010100"/>
<path d="M80.514 12.8829V12.9707H81.8751C82.0066 12.9734 82.1373 12.9482 82.2584 12.8967C82.3794 12.8453 82.4883 12.7687 82.5776 12.6721C82.7422 12.4917 82.8358 12.2577 82.841 12.0135C82.8362 11.7702 82.7389 11.5378 82.5688 11.3637C82.4775 11.2648 82.3658 11.1869 82.2415 11.1354C82.1172 11.0838 81.9832 11.0599 81.8487 11.0651H80.4261V12.9707H80.514V12.8829H80.6018V11.2407H81.8487C81.9581 11.2358 82.0672 11.2544 82.1687 11.2953C82.2702 11.3362 82.3617 11.3985 82.4371 11.4778C82.5087 11.5476 82.5658 11.6308 82.605 11.7228C82.6441 11.8147 82.6647 11.9136 82.6654 12.0135C82.6635 12.2136 82.5849 12.4053 82.4459 12.5492C82.3751 12.6302 82.2871 12.6943 82.1884 12.7369C82.0896 12.7794 81.9825 12.7993 81.8751 12.7951H80.514V12.8829ZM80.514 10.5207V10.6085H81.7434C81.8696 10.613 81.9954 10.5903 82.1121 10.5418C82.2288 10.4933 82.3337 10.4202 82.4195 10.3275C82.5818 10.1639 82.6732 9.94314 82.6742 9.71277C82.6756 9.48364 82.5873 9.26304 82.4283 9.09807C82.3444 9.00759 82.2424 8.9358 82.129 8.88739C82.0155 8.83897 81.8931 8.81501 81.7697 8.81706H80.4261V10.5734H80.514V10.4855H80.6018V8.99269H81.7697C81.8688 8.99035 81.9673 9.00955 82.0582 9.04897C82.1492 9.08839 82.2305 9.14709 82.2966 9.22101C82.3613 9.28538 82.4125 9.36205 82.4472 9.4465C82.4819 9.53095 82.4994 9.62148 82.4986 9.71277C82.4973 9.89663 82.4249 10.0729 82.2966 10.2045C82.2265 10.2805 82.1407 10.3403 82.0452 10.3797C81.9496 10.4191 81.8466 10.4373 81.7434 10.4328H80.514V10.5207ZM79.8378 13.5327H79.9256V8.35165H81.7434C82.1179 8.34155 82.4811 8.48052 82.7532 8.73803C82.8907 8.85633 83.0004 9.00338 83.0748 9.16878C83.1492 9.33418 83.1863 9.51389 83.1835 9.69521C83.1886 9.91446 83.1241 10.1297 82.9991 10.3099C82.8765 10.4848 82.7099 10.6241 82.5161 10.7139H82.4634V10.8544H82.5249C82.7629 10.9295 82.9715 11.0768 83.122 11.2759C83.2802 11.4754 83.364 11.7238 83.3591 11.9784C83.3627 12.1692 83.3244 12.3584 83.247 12.5329C83.1697 12.7073 83.0551 12.8628 82.9113 12.9882C82.6199 13.2507 82.2409 13.3948 81.8487 13.3922H79.8378V13.48V13.5678H81.8487C82.285 13.5719 82.7061 13.4084 83.0254 13.1112C83.1881 12.9711 83.318 12.7971 83.406 12.6014C83.494 12.4056 83.5379 12.193 83.5348 11.9784C83.5375 11.6861 83.4415 11.4015 83.2626 11.1705C83.0903 10.9419 82.8508 10.773 82.5776 10.6875V10.7665H82.6654H82.5776V10.8456C82.8031 10.7434 82.9972 10.5827 83.1396 10.3802C83.2814 10.1704 83.355 9.92201 83.3504 9.66886C83.3474 9.46633 83.3012 9.26676 83.2149 9.08352C83.1285 8.90027 83.0041 8.73758 82.8498 8.60631C82.5414 8.32293 82.1358 8.16889 81.717 8.17602H79.7236V13.6205H79.8114V13.5327H79.8378Z" fill="#010100"/>
<path d="M92.8697 28.461H94.5118V17.4841H92.8697V28.461ZM107.631 21.4358L105.752 26.1953H105.682L103.732 21.4358H101.976L104.9 28.0833L103.241 31.8242H104.944L109.449 21.4709L107.631 21.4358ZM98.3405 27.214C97.8049 27.214 97.0496 26.9418 97.0496 26.2832C97.0496 25.405 97.9893 25.1064 98.8059 25.1064C99.3304 25.0937 99.8487 25.221 100.308 25.4753C100.25 25.9544 100.021 26.3964 99.6625 26.7194C99.304 27.0424 98.8406 27.2243 98.3581 27.2315L98.3405 27.214ZM98.5337 21.1987C97.9359 21.163 97.3406 21.3027 96.8211 21.6006C96.3016 21.8986 95.8805 22.3419 95.6095 22.876L97.0672 23.4819C97.2101 23.2162 97.4275 22.9982 97.6928 22.8546C97.9581 22.7111 98.2595 22.6483 98.5601 22.674C98.7685 22.6496 98.9797 22.667 99.1814 22.7252C99.3831 22.7834 99.5711 22.8811 99.7346 23.0127C99.8981 23.1443 100.034 23.3071 100.134 23.4917C100.233 23.6763 100.296 23.8789 100.316 24.0878V24.202C99.7752 23.9174 99.1715 23.7725 98.5601 23.7804C96.997 23.7804 95.3987 24.6586 95.3987 26.248C95.4131 26.5873 95.4956 26.9203 95.6413 27.227C95.7871 27.5338 95.9932 27.808 96.2472 28.0334C96.5013 28.2587 96.7981 28.4306 97.1201 28.5388C97.442 28.6469 97.7824 28.6892 98.121 28.6629C98.5335 28.6885 98.9452 28.6025 99.313 28.414C99.6807 28.2255 99.9909 27.9414 100.211 27.5916H100.272V28.4697H101.853V24.2546C101.853 22.3052 100.395 21.225 98.5162 21.225L98.5337 21.1987ZM88.4087 22.7706H86.0816V19.0121H88.4087C88.6585 19.0086 88.9066 19.0546 89.1386 19.1472C89.3707 19.2399 89.5821 19.3775 89.7608 19.5521C89.9395 19.7267 90.0819 19.9349 90.1799 20.1648C90.2779 20.3946 90.3296 20.6415 90.3318 20.8913C90.3249 21.3952 90.1187 21.8758 89.7583 22.228C89.3978 22.5802 88.9126 22.7753 88.4087 22.7706ZM88.4087 17.5017H84.4834V28.4785H86.1255V24.3161H88.4087C89.3374 24.3397 90.2377 23.9945 90.9124 23.3559C91.5872 22.7174 91.9815 21.8375 92.0091 20.9089C91.9815 19.9803 91.5872 19.1004 90.9124 18.4619C90.2377 17.8233 89.3374 17.4781 88.4087 17.5017ZM66.9557 27.214C66.6704 27.2062 66.3896 27.1414 66.1297 27.0236C65.8698 26.9057 65.636 26.7372 65.4422 26.5277C65.2483 26.3183 65.0982 26.0723 65.0007 25.8041C64.9032 25.5359 64.8603 25.251 64.8745 24.9659C64.8591 24.6789 64.901 24.3917 64.9976 24.1209C65.0942 23.8502 65.2437 23.6014 65.4374 23.3889C65.631 23.1765 65.865 23.0047 66.1256 22.8834C66.3863 22.7622 66.6684 22.694 66.9557 22.6828C67.2381 22.6971 67.5148 22.7681 67.7692 22.8916C68.0237 23.015 68.2507 23.1885 68.4367 23.4015C68.6227 23.6146 68.7639 23.8629 68.8519 24.1316C68.9399 24.4004 68.973 24.6841 68.949 24.9659C68.9705 25.2454 68.9355 25.5264 68.8462 25.7921C68.7568 26.0578 68.6149 26.3028 68.429 26.5126C68.243 26.7223 68.0167 26.8925 67.7636 27.013C67.5105 27.1335 67.2357 27.2019 66.9557 27.214ZM68.7998 22.0505C68.5483 21.7818 68.2434 21.5687 67.9046 21.425C67.5658 21.2813 67.2007 21.2102 66.8327 21.2163C65.8645 21.2506 64.9479 21.6618 64.2786 22.3623C63.6093 23.0628 63.2401 23.9971 63.2499 24.9659C63.2449 25.93 63.6166 26.8579 64.2859 27.5518C64.9552 28.2457 65.8691 28.6507 66.8327 28.6805C67.2046 28.685 67.573 28.6088 67.9126 28.4572C68.2521 28.3056 68.5548 28.0822 68.7998 27.8023V28.338C68.7998 29.7694 68.0358 30.5334 66.8064 30.5334C66.3959 30.5231 65.9978 30.3906 65.663 30.1528C65.3283 29.915 65.072 29.5828 64.9271 29.1986L63.4958 29.7957C63.7652 30.4511 64.2243 31.0111 64.8142 31.4038C65.404 31.7965 66.0978 32.0041 66.8064 31.9999C68.7295 31.9999 70.319 30.8671 70.319 28.1097V21.4095H68.7998V22.0154V22.0505ZM71.4869 28.461H73.1905V17.4841H71.522V28.461H71.4869ZM75.5878 24.7991C75.5749 24.5268 75.6165 24.2546 75.7102 23.9986C75.8039 23.7425 75.9478 23.5078 76.1335 23.3082C76.3192 23.1086 76.543 22.9481 76.7916 22.8362C77.0402 22.7242 77.3086 22.6631 77.5812 22.6564C77.8645 22.6378 78.147 22.7027 78.3936 22.8432C78.6403 22.9837 78.8402 23.1936 78.9687 23.4467L75.5878 24.7991ZM80.681 23.5521C80.4506 22.88 80.0217 22.2936 79.451 21.8703C78.8803 21.447 78.1947 21.2067 77.4846 21.1811C77.0043 21.1802 76.5288 21.2778 76.0877 21.4679C75.6466 21.658 75.2491 21.9365 74.9199 22.2863C74.5907 22.6361 74.3367 23.0497 74.1737 23.5015C74.0106 23.9534 73.942 24.4338 73.972 24.9132C73.9601 25.4044 74.0476 25.8929 74.2293 26.3493C74.411 26.8057 74.6831 27.2208 75.0292 27.5694C75.3754 27.918 75.7885 28.193 76.2436 28.3779C76.6988 28.5628 77.1866 28.6538 77.6778 28.6454C78.2921 28.6487 78.8976 28.4996 79.4401 28.2115C79.9826 27.9234 80.4452 27.5052 80.7864 26.9945L79.5131 26.1163C79.3237 26.4337 79.0548 26.6962 78.733 26.878C78.4111 27.0597 78.0474 27.1543 77.6778 27.1525C77.2976 27.1776 76.9184 27.0892 76.5885 26.8984C76.2587 26.7077 75.9929 26.4232 75.8249 26.0812L80.8216 24.0175L80.6547 23.5873L80.681 23.5521ZM40.8923 22.3227V23.9209H44.6859C44.6264 24.6654 44.317 25.3679 43.8078 25.9143C43.4292 26.3023 42.9731 26.606 42.4693 26.8057C41.9654 27.0055 41.4251 27.0967 40.8836 27.0735C40.3325 27.0735 39.7869 26.9641 39.2784 26.7517C38.7699 26.5392 38.3087 26.2279 37.9215 25.8358C37.5343 25.4437 37.2288 24.9786 37.0228 24.4675C36.8167 23.9564 36.7142 23.4094 36.7212 22.8584C36.7142 22.3074 36.8167 21.7604 37.0228 21.2493C37.2288 20.7382 37.5343 20.2731 37.9215 19.881C38.3087 19.4889 38.7699 19.1776 39.2784 18.9651C39.7869 18.7526 40.3325 18.6433 40.8836 18.6433C41.9474 18.6276 42.974 19.0351 43.7375 19.7761L44.8616 18.6521C44.3379 18.1348 43.7164 17.7271 43.0334 17.4527C42.3504 17.1783 41.6195 17.0427 40.8836 17.0539C39.3367 17.0537 37.8521 17.6627 36.7509 18.7491C35.6498 19.8354 35.0208 21.3117 35 22.8584C35.0208 24.4043 35.6501 25.8796 36.7515 26.9646C37.8529 28.0495 39.3375 28.6566 40.8836 28.6541C41.6352 28.6881 42.3854 28.5607 43.0837 28.2805C43.782 28.0002 44.4122 27.5737 44.9318 27.0296C45.8518 26.0188 46.343 24.69 46.3017 23.3238C46.3066 22.9909 46.2772 22.6584 46.2139 22.3315L40.8923 22.3227ZM50.6222 27.1789C50.3339 27.1722 50.0498 27.1078 49.7868 26.9896C49.5237 26.8714 49.287 26.7017 49.0906 26.4906C48.8942 26.2794 48.742 26.031 48.6431 25.7601C48.5442 25.4893 48.5005 25.2013 48.5146 24.9132C48.4993 24.6249 48.5421 24.3364 48.6405 24.065C48.739 23.7936 48.8911 23.5448 49.0878 23.3333C49.2844 23.1219 49.5216 22.9523 49.7852 22.8345C50.0489 22.7167 50.3335 22.6531 50.6222 22.6476C50.9109 22.6531 51.1955 22.7167 51.4591 22.8345C51.7227 22.9523 51.9599 23.1219 52.1566 23.3333C52.3533 23.5448 52.5053 23.7936 52.6038 24.065C52.7023 24.3364 52.7451 24.6249 52.7297 24.9132C52.7439 25.2013 52.7002 25.4893 52.6013 25.7601C52.5024 26.031 52.3502 26.2794 52.1538 26.4906C51.9574 26.7017 51.7206 26.8714 51.4576 26.9896C51.1945 27.1078 50.9105 27.1722 50.6222 27.1789ZM50.6222 21.1811C50.1234 21.1679 49.6272 21.2562 49.1637 21.4407C48.7002 21.6253 48.279 21.9021 47.9258 22.2545C47.5726 22.6069 47.2948 23.0274 47.1092 23.4905C46.9236 23.9536 46.8341 24.4496 46.8462 24.9484C46.8402 25.4416 46.9333 25.931 47.1198 26.3877C47.3064 26.8443 47.5827 27.2589 47.9323 27.6069C48.2819 27.9548 48.6978 28.2292 49.1553 28.4136C49.6128 28.598 50.1026 28.6887 50.5958 28.6805C51.089 28.6887 51.5789 28.598 52.0364 28.4136C52.4939 28.2292 52.9098 27.9548 53.2594 27.6069C53.609 27.2589 53.8853 26.8443 54.0718 26.3877C54.2584 25.931 54.3515 25.4416 54.3455 24.9484C54.3527 24.4548 54.2604 23.9648 54.0743 23.5076C53.8882 23.0505 53.612 22.6354 53.2621 22.2872C52.9122 21.9389 52.4959 21.6647 52.0378 21.4807C51.5798 21.2967 51.0894 21.2068 50.5958 21.2163L50.6222 21.1811ZM58.7977 27.1789C58.5094 27.1722 58.2253 27.1078 57.9623 26.9896C57.6992 26.8714 57.4625 26.7017 57.2661 26.4906C57.0697 26.2794 56.9175 26.031 56.8186 25.7601C56.7197 25.4893 56.676 25.2013 56.6902 24.9132C56.6748 24.6249 56.7176 24.3364 56.8161 24.065C56.9145 23.7936 57.0666 23.5448 57.2633 23.3333C57.46 23.1219 57.6972 22.9523 57.9608 22.8345C58.2244 22.7167 58.509 22.6531 58.7977 22.6476C59.0888 22.6541 59.3755 22.7195 59.6406 22.84C59.9056 22.9605 60.1435 23.1335 60.3397 23.3486C60.5359 23.5637 60.6864 23.8164 60.7821 24.0914C60.8778 24.3664 60.9167 24.6579 60.8965 24.9484C60.9106 25.2364 60.8669 25.5244 60.768 25.7953C60.6691 26.0662 60.5169 26.3145 60.3205 26.5257C60.1241 26.7368 59.8874 26.9065 59.6243 27.0247C59.3613 27.143 59.0772 27.2073 58.7889 27.214L58.7977 27.1789ZM58.7977 21.1811C58.3042 21.1717 57.8138 21.2616 57.3557 21.4456C56.8976 21.6295 56.4813 21.9038 56.1314 22.252C55.7816 22.6003 55.5053 23.0153 55.3192 23.4725C55.1331 23.9297 55.0409 24.4197 55.048 24.9132C55.0421 25.4065 55.1351 25.8959 55.3217 26.3525C55.5083 26.8092 55.7845 27.2238 56.1341 27.5717C56.4838 27.9197 56.8996 28.194 57.3571 28.3784C57.8146 28.5629 58.3045 28.6536 58.7977 28.6454C59.2909 28.6536 59.7808 28.5629 60.2383 28.3784C60.6958 28.194 61.1116 27.9197 61.4613 27.5717C61.8109 27.2238 62.0871 26.8092 62.2737 26.3525C62.4603 25.8959 62.5533 25.4065 62.5474 24.9132C62.5545 24.4197 62.4623 23.9297 62.2762 23.4725C62.0901 23.0153 61.8138 22.6003 61.464 22.252C61.1141 21.9038 60.6978 21.6295 60.2397 21.4456C59.7816 21.2616 59.2912 21.1717 58.7977 21.1811Z" fill="#010100"/>
<path d="M10.4 9.06104C10.16 9.30104 10 9.70103 10 10.181V27.861C10 28.341 10.16 28.741 10.4 28.981L10.48 29.061L20.4 19.141V19.061V18.981L10.4 9.06104Z" fill="url(#paint0_linear_6_22799)"/>
<path d="M23.6804 22.5007L20.4004 19.2207V19.0607V18.9807L23.6804 15.7007L23.7604 15.7807L27.6804 18.0207C28.8004 18.6607 28.8004 19.7007 27.6804 20.3407L23.6804 22.5007Z" fill="url(#paint1_linear_6_22799)"/>
<path d="M23.7604 22.421L20.4004 19.061L10.4004 29.061C10.8004 29.461 11.3604 29.461 12.0804 29.141L23.7604 22.421Z" fill="url(#paint2_linear_6_22799)"/>
<path d="M23.7604 15.7008L12.0804 9.06083C11.3604 8.66083 10.8004 8.74083 10.4004 9.14083L20.4004 19.0608L23.7604 15.7008Z" fill="url(#paint3_linear_6_22799)"/>
<path opacity="0.2" d="M23.6804 22.3408L12.0804 28.9008C11.4404 29.3008 10.8804 29.2208 10.4804 28.9008L10.4004 28.9808L10.4804 29.0608C10.8804 29.3808 11.4404 29.4608 12.0804 29.0608L23.6804 22.3408Z" fill="black"/>
<path opacity="0.12" d="M10.4001 28.9008C10.1601 28.6608 10.0801 28.2608 10.0801 27.7808V27.8608C10.0801 28.3408 10.2401 28.7408 10.4801 28.9808V28.9008H10.4001Z" fill="black"/>
<path opacity="0.12" d="M27.6797 20.101L23.6797 22.341L23.7597 22.421L27.6797 20.181C28.2397 19.861 28.4797 19.461 28.4797 19.061C28.4797 19.461 28.1597 19.781 27.6797 20.101Z" fill="black"/>
<path opacity="0.25" d="M12.0801 9.14084L27.6801 18.0208C28.1601 18.3408 28.4801 18.6608 28.4801 19.0608C28.4801 18.6608 28.2401 18.2608 27.6801 17.9408L12.0801 9.06084C10.9601 8.42084 10.0801 8.98084 10.0801 10.2608V10.3408C10.0801 9.06084 10.9601 8.50084 12.0801 9.14084Z" fill="white"/>
<defs>
<linearGradient id="paint0_linear_6_22799" x1="19.5198" y1="10.0288" x2="6.09384" y2="23.4547" gradientUnits="userSpaceOnUse">
<stop stop-color="#00A0FF"/>
<stop offset="0.00657445" stop-color="#00A1FF"/>
<stop offset="0.2601" stop-color="#00BEFF"/>
<stop offset="0.5122" stop-color="#00D2FF"/>
<stop offset="0.7604" stop-color="#00DFFF"/>
<stop offset="1" stop-color="#00E3FF"/>
</linearGradient>
<linearGradient id="paint1_linear_6_22799" x1="29.1479" y1="19.0618" x2="9.79039" y2="19.0618" gradientUnits="userSpaceOnUse">
<stop stop-color="#FFE000"/>
<stop offset="0.4087" stop-color="#FFBD00"/>
<stop offset="0.7754" stop-color="#FFA500"/>
<stop offset="1" stop-color="#FF9C00"/>
</linearGradient>
<linearGradient id="paint2_linear_6_22799" x1="21.942" y1="20.8979" x2="3.73535" y2="39.1046" gradientUnits="userSpaceOnUse">
<stop stop-color="#FF3A44"/>
<stop offset="1" stop-color="#C31162"/>
</linearGradient>
<linearGradient id="paint3_linear_6_22799" x1="7.91823" y1="3.20179" x2="16.0483" y2="11.3318" gradientUnits="userSpaceOnUse">
<stop stop-color="#32A071"/>
<stop offset="0.0685" stop-color="#2DA771"/>
<stop offset="0.4762" stop-color="#15CF74"/>
<stop offset="0.8009" stop-color="#06E775"/>
<stop offset="1" stop-color="#00F076"/>
</linearGradient>
</defs>
</svg>
