<svg width="20" height="20" viewBox="0 0 20 20" fill="none" xmlns="http://www.w3.org/2000/svg">
<path d="M12.5001 7.00001C13.3286 7.00001 14.0001 6.32843 14.0001 5.5C14.0001 4.67157 13.3286 4 12.5001 4C11.6717 4 11.0001 4.67157 11.0001 5.5C11.0001 6.32843 11.6717 7.00001 12.5001 7.00001Z" stroke="#141E2D" stroke-miterlimit="1.8314" stroke-linecap="round" stroke-linejoin="round"/>
<path fill-rule="evenodd" clip-rule="evenodd" d="M13 15H7V16.5002C7 17.2955 7.31559 18.0586 7.87839 18.6213C8.44119 19.1841 9.2044 19.5 10 19.5C10.7956 19.5 11.5588 19.1841 12.1216 18.6213C12.6844 18.0586 13 17.2955 13 16.5002C13 15.6741 13 15 13 15Z" stroke="#141E2D" stroke-miterlimit="1.8314" stroke-linecap="round" stroke-linejoin="round"/>
<path d="M7 17H13" stroke="#141E2D" stroke-miterlimit="1.8314" stroke-linejoin="round"/>
<path fill-rule="evenodd" clip-rule="evenodd" d="M6.259 12.868C6.099 12.407 5.83199 11.991 5.48099 11.653C4.25599 10.48 3.5 8.828 3.5 7C3.5 3.413 6.413 0.5 10 0.5C13.587 0.5 16.5 3.413 16.5 7C16.5 8.828 15.744 10.48 14.528 11.662C14.178 11.999 13.913 12.413 13.753 12.872C13.445 13.72 13 15 13 15H7C7 15 6.555 13.72 6.259 12.868Z" stroke="#141E2D" stroke-miterlimit="1.8314" stroke-linecap="round" stroke-linejoin="round"/>
</svg>
