<svg width="20" height="20" viewBox="0 0 20 20" fill="none" xmlns="http://www.w3.org/2000/svg">
<path fill-rule="evenodd" clip-rule="evenodd" d="M10 0C11.923 0 13.658 0.603 14.919 1.764C16.186 2.93 17 4.668 17 7C17 8.937 16.003 11.404 14.764 13.651C12.994 16.859 10.781 19.625 10.781 19.625C10.591 19.862 10.304 20 10 20C9.696 20 9.409 19.862 9.219 19.625C9.219 19.625 7.006 16.859 5.236 13.651C3.997 11.404 3 8.937 3 7C3 4.668 3.814 2.93 5.081 1.764C6.342 0.603 8.077 0 10 0ZM10 1C6.689 1 4 3 4 7C4 11.5 10 19 10 19C10 19 16 11.5 16 7C16 3 13.311 1 10 1Z" fill="#141E2D"/>
<path d="M10 10C11.933 10 13.5 8.433 13.5 6.5C13.5 4.567 11.933 3 10 3C8.067 3 6.5 4.567 6.5 6.5C6.5 8.433 8.067 10 10 10Z" stroke="#141E2D" stroke-miterlimit="1.8314" stroke-linecap="round" stroke-linejoin="round"/>
</svg>
