<svg width="112" height="18" viewBox="0 0 112 18" fill="none" xmlns="http://www.w3.org/2000/svg">
<path fill-rule="evenodd" clip-rule="evenodd" d="M42.0263 6.58574C42.1703 6.73162 42.4071 6.74871 42.553 6.60478L43.1821 5.98445C43.3178 5.85066 43.3191 5.63158 43.1771 5.50442C42.8936 5.25045 42.588 5.02525 42.2502 4.84248C42.0271 4.71581 41.7468 4.61457 41.4134 4.53599C41.0814 4.45042 40.7404 4.40771 40.3908 4.40771C39.5237 4.40771 38.7909 4.66282 38.2032 5.17951L38.2029 5.17977L38.2026 5.18003C37.6242 5.69409 37.3262 6.30503 37.3262 7.00762C37.3262 7.59324 37.4993 8.08517 37.8542 8.47067L37.855 8.47161L37.8559 8.47254C38.2041 8.83783 38.6211 9.10719 39.1048 9.2801L39.1056 9.28038L39.1064 9.28066C39.5708 9.44072 40.0322 9.58895 40.4908 9.72535L40.4919 9.72567L40.493 9.72598C40.9424 9.85219 41.3206 10.0258 41.6305 10.2446L41.6317 10.2454L41.633 10.2463C41.9297 10.4468 42.0662 10.6958 42.0662 11.0013C42.0662 11.3754 41.9208 11.6794 41.6221 11.9237L41.6216 11.9241L41.6211 11.9245C41.3313 12.1659 40.8991 12.2976 40.3019 12.2976C40.0518 12.2976 39.8041 12.2562 39.5581 12.1727C39.3062 12.0872 39.1062 11.9923 38.9545 11.8901C38.7957 11.777 38.6452 11.6527 38.5032 11.5171C38.4302 11.4414 38.3616 11.3638 38.2962 11.2838C38.1594 11.1164 37.9056 11.0895 37.7516 11.2413L37.1221 11.8621C37.0038 11.9787 36.9847 12.164 37.0866 12.295C37.2126 12.4568 37.3479 12.6054 37.5087 12.749L37.5107 12.7507L37.5128 12.7524C37.6967 12.9051 37.9098 13.0565 38.1515 13.2069C38.4032 13.3635 38.7159 13.4952 39.0862 13.604L39.0868 13.6042C39.4689 13.7146 39.8741 13.7694 40.3019 13.7694C41.2996 13.7694 42.1109 13.5146 42.7196 12.9897L42.72 12.9894L42.7203 12.9891C43.3268 12.4599 43.6332 11.7941 43.6332 11.0013C43.6332 10.3994 43.4611 9.89351 43.1073 9.49617C42.7648 9.10566 42.3493 8.82552 41.8628 8.65767C41.3972 8.49127 40.9315 8.3456 40.4656 8.22069C40.0148 8.094 39.6353 7.92838 39.3245 7.72583C39.0345 7.53681 38.9022 7.29999 38.9022 7.00762C38.9022 6.72204 39.0279 6.46572 39.3032 6.23453C39.5733 6.00783 39.9312 5.88838 40.3908 5.88838C40.747 5.88838 41.0794 5.9685 41.3901 6.12871L41.391 6.12919L41.3919 6.12966C41.6471 6.25671 41.8413 6.39827 42.0263 6.58574Z" fill="#141E2D"/>
<path fill-rule="evenodd" clip-rule="evenodd" d="M45.8924 17.4C46.0827 17.4 46.237 17.2464 46.237 17.0569V12.8555C46.237 12.7235 46.4015 12.655 46.5 12.7432C46.5022 12.7451 46.5043 12.747 46.5065 12.749L46.5085 12.7507L46.5105 12.7524C46.6945 12.9051 46.9076 13.0565 47.1493 13.2069C47.3998 13.3628 47.7026 13.4944 48.0553 13.6034L48.0557 13.6035L48.056 13.6036C48.4201 13.7142 48.7963 13.7694 49.1841 13.7694C50.3492 13.7694 51.3653 13.307 52.2263 12.3948L52.2267 12.3945C53.0886 11.4753 53.5203 10.3737 53.5203 9.09743C53.5203 7.8152 53.0856 6.71051 52.2176 5.79131C51.3568 4.87353 50.3438 4.40771 49.1841 4.40771C48.7957 4.40771 48.4163 4.46603 48.0464 4.58258C47.6892 4.69113 47.3893 4.81953 47.1499 4.96985C46.9169 5.11039 46.6992 5.27229 46.4969 5.45544L46.496 5.4562L46.4952 5.45697C46.399 5.54677 46.237 5.47933 46.237 5.34802V4.93677C46.237 4.74728 46.0827 4.59367 45.8924 4.59367H45.0145C44.8242 4.59367 44.6699 4.74728 44.6699 4.93677V17.0569C44.6699 17.2464 44.8242 17.4 45.0145 17.4H45.8924ZM51.094 6.82371C51.6662 7.44427 51.9533 8.19918 51.9533 9.09743C51.9533 9.98951 51.6664 10.7448 51.0935 11.3716L51.0935 11.3717C50.5234 11.9961 49.8882 12.2976 49.1841 12.2976C48.4431 12.2976 47.7656 11.9862 47.148 11.3429C46.5387 10.6962 46.237 9.94979 46.237 9.09743C46.237 8.23872 46.539 7.49244 47.148 6.85195C47.7659 6.20253 48.4434 5.88838 49.1841 5.88838C49.8877 5.88838 50.5228 6.19237 51.093 6.82268L51.0935 6.8232L51.094 6.82371Z" fill="#141E2D"/>
<path fill-rule="evenodd" clip-rule="evenodd" d="M60.1974 7.48325C60.2269 7.65467 60.0997 7.8075 59.9273 7.83558L56.9854 8.31479C56.1406 8.45399 55.4767 8.7563 55.0098 9.23361C54.5395 9.70843 54.3096 10.3322 54.3096 11.0898C54.3096 11.8014 54.631 12.427 55.2496 12.9629L55.2499 12.9632L55.2502 12.9634C55.8786 13.5024 56.649 13.7694 57.552 13.7694C57.9152 13.7694 58.2669 13.7204 58.6066 13.622C58.9454 13.5256 59.225 13.4152 59.441 13.2887L59.4424 13.2879L59.4438 13.287C59.6526 13.1586 59.8464 13.0147 60.025 12.8552L60.0252 12.855C60.1038 12.7846 60.2323 12.8398 60.2323 12.9451V13.2492C60.2323 13.4387 60.3866 13.5923 60.5769 13.5923H61.4548C61.6451 13.5923 61.7993 13.4387 61.7993 13.2492V7.91084C61.7993 6.92252 61.4555 6.08731 60.7681 5.41515C60.0859 4.74219 59.2234 4.40771 58.1923 4.40771C57.7861 4.40771 57.3861 4.46901 56.9928 4.5913C56.6116 4.70584 56.2957 4.8405 56.0494 4.99769C55.6278 5.2668 55.2323 5.59532 54.9032 5.97506C54.7912 6.10434 54.8059 6.29643 54.9271 6.41716L55.4766 6.96428C55.6169 7.10405 55.8455 7.09604 55.9816 6.95222C56.2661 6.65177 56.5592 6.3925 56.9526 6.19087L56.953 6.19068L56.9533 6.19049C57.3413 5.98895 57.7536 5.88838 58.1923 5.88838C58.7987 5.88838 59.2845 6.07712 59.6627 6.44822C59.947 6.72724 60.1263 7.07027 60.1974 7.48325ZM59.9418 9.22955C60.093 9.20194 60.2323 9.31755 60.2323 9.4706V9.54904C60.2323 10.3719 59.9771 11.0295 59.4746 11.5354L59.4743 11.5357L59.474 11.536C58.9769 12.0422 58.3404 12.2976 57.552 12.2976C57.0043 12.2976 56.5931 12.1756 56.3013 11.9489C56.0143 11.7156 55.8767 11.4323 55.8766 11.0903C55.8794 10.7162 56.0041 10.4227 56.2459 10.1963C56.492 9.9658 56.8713 9.79401 57.4013 9.69358L57.4017 9.69349L59.9418 9.22955Z" fill="#141E2D"/>
<path d="M64.1572 12.4052L64.1575 12.4055C65.0439 13.3125 66.1073 13.7694 67.3403 13.7694C67.7825 13.7694 68.2156 13.7021 68.6391 13.5677L68.6397 13.5675L68.6403 13.5673C69.0614 13.4295 69.4101 13.2809 69.6831 13.1203L69.6842 13.1196L69.6853 13.119C70.1644 12.8262 70.617 12.4657 70.9877 12.0404C71.1046 11.9064 71.0841 11.7057 70.9518 11.5868L70.3311 11.0293C70.1853 10.8984 69.9604 10.916 69.8293 11.0614C69.5083 11.4173 69.1729 11.7119 68.7205 11.9518C68.285 12.1827 67.8256 12.2976 67.3403 12.2976C66.5479 12.2976 65.8596 11.9947 65.2689 11.3785C64.6856 10.758 64.3932 10.0008 64.3932 9.09743C64.3932 8.18768 64.686 7.43062 65.2689 6.81639C65.8598 6.194 66.5482 5.88838 67.3403 5.88838C68.185 5.88838 69.0127 6.3936 69.7095 7.13413C69.8476 7.28097 70.0815 7.29306 70.2251 7.15147L70.8669 6.5186C70.9984 6.38897 71.0041 6.1785 70.8756 6.04596C70.4118 5.56757 69.9386 5.17303 69.3092 4.86587C68.7011 4.56019 68.044 4.40771 67.3403 4.40771C66.1127 4.40771 65.0494 4.86801 64.1575 5.78047C63.2703 6.68827 62.8262 7.79389 62.8262 9.08857C62.8262 10.3832 63.2703 11.4916 64.1572 12.4052Z" fill="#141E2D"/>
<path fill-rule="evenodd" clip-rule="evenodd" d="M73.1732 9.96758C73.1433 9.82431 73.2588 9.6968 73.4057 9.69717L79.9018 9.71336C80.0746 9.71379 80.221 9.58672 80.2441 9.41621L80.3113 8.92136V8.91147C80.3113 7.62013 79.899 6.5432 79.0694 5.6924C78.2401 4.83612 77.2053 4.40771 75.975 4.40771C74.7815 4.40771 73.742 4.86912 72.8626 5.78121C71.9875 6.68914 71.5498 7.79452 71.5498 9.08857C71.5498 10.3832 71.9939 11.4916 72.8808 12.4052L72.8811 12.4055C73.7675 13.3125 74.8309 13.7694 76.0639 13.7694C76.5175 13.7694 76.9593 13.7022 77.3888 13.5679L77.3894 13.5677L77.39 13.5675C77.817 13.4297 78.1689 13.2811 78.4423 13.1203L78.4428 13.12L78.4432 13.1198C78.7178 12.9557 78.9714 12.7702 79.2038 12.5631L79.204 12.5629C79.3921 12.3948 79.561 12.2223 79.7192 12.0351C79.8296 11.9045 79.815 11.7125 79.6937 11.5917L79.1452 11.0455C79.0042 10.9052 78.7743 10.9137 78.6389 11.0594C78.3103 11.4128 77.975 11.7142 77.5166 11.9511C77.07 12.1819 76.5865 12.2976 76.0639 12.2976C75.2908 12.2976 74.6186 12.0267 74.0405 11.4794C73.5796 11.0386 73.2918 10.5355 73.1732 9.96758ZM77.8294 6.61802L77.8297 6.6183L77.83 6.61857C78.2421 7.00662 78.5196 7.47575 78.6619 8.02976C78.6996 8.17646 78.5832 8.31282 78.4311 8.31282H73.4402C73.2858 8.31282 73.169 8.17251 73.2125 8.02501C73.3642 7.51117 73.651 7.05469 74.0757 6.65387C74.6182 6.14183 75.2491 5.88838 75.975 5.88838C76.7028 5.88838 77.3181 6.13129 77.8294 6.61802Z" fill="#141E2D"/>
<path d="M87.5634 4.83121C87.5174 4.68959 87.385 4.59363 87.2355 4.59363H86.428C86.2787 4.59363 86.1464 4.68939 86.1003 4.83082L84.2321 10.5627C84.1882 10.6974 83.9973 10.6985 83.9518 10.5643L82.0058 4.82694C81.9585 4.6875 81.8271 4.59363 81.6793 4.59363H80.5891C80.4201 4.59363 80.3014 4.75928 80.3563 4.91839L83.2716 13.3607C83.3195 13.4993 83.4504 13.5923 83.5975 13.5923H84.5059C84.6549 13.5923 84.787 13.4969 84.8334 13.356L86.6876 7.71891C86.732 7.58396 86.9237 7.58385 86.9683 7.71874L88.8303 13.3564C88.8768 13.4971 89.0088 13.5923 89.1576 13.5923H90.0573C90.2045 13.5923 90.3354 13.4993 90.3832 13.3607L93.2985 4.91839C93.3534 4.75928 93.2347 4.59363 93.0657 4.59363H91.9755C91.8277 4.59363 91.6963 4.6875 91.649 4.82694L89.7036 10.5626C89.6581 10.6969 89.467 10.6956 89.4232 10.5608L87.5634 4.83121Z" fill="#141E2D"/>
<path fill-rule="evenodd" clip-rule="evenodd" d="M94.9359 9.96758C94.906 9.82431 95.0215 9.6968 95.1684 9.69717L101.664 9.71336C101.837 9.71379 101.984 9.58672 102.007 9.41621L102.074 8.92136V8.91147C102.074 7.61994 101.662 6.54288 100.832 5.69203C100.003 4.836 98.9678 4.40771 97.7377 4.40771C96.5442 4.40771 95.5047 4.86912 94.6253 5.78121C93.7502 6.68914 93.3125 7.79452 93.3125 9.08857C93.3125 10.3832 93.7566 11.4916 94.6435 12.4052L94.6438 12.4055C95.5302 13.3125 96.5936 13.7694 97.8266 13.7694C98.2802 13.7694 98.722 13.7022 99.1515 13.5679L99.1521 13.5677L99.1527 13.5675C99.5797 13.4297 99.9316 13.2811 100.205 13.1203L100.205 13.12L100.206 13.1198C100.688 12.8318 101.119 12.4625 101.482 12.035C101.592 11.9045 101.578 11.7125 101.456 11.5917L100.908 11.0455C100.767 10.9052 100.537 10.9137 100.402 11.0594C100.073 11.4128 99.7377 11.7142 99.2793 11.9511C98.8327 12.1819 98.3492 12.2976 97.8266 12.2976C97.0534 12.2976 96.3811 12.0266 95.803 11.4792C95.3422 11.0384 95.0545 10.5354 94.9359 9.96758ZM99.5921 6.61802L99.5924 6.6183L99.5927 6.61857C100.005 7.00662 100.282 7.47575 100.425 8.02976C100.462 8.17646 100.346 8.31282 100.194 8.31282H95.2029C95.0485 8.31282 94.9317 8.17251 94.9752 8.02501C95.1269 7.51117 95.4137 7.05469 95.8384 6.65387C96.3809 6.14183 97.0118 5.88838 97.7377 5.88838C98.4655 5.88838 99.0808 6.13129 99.5921 6.61802Z" fill="#141E2D"/>
<path fill-rule="evenodd" clip-rule="evenodd" d="M104.975 5.45692C104.878 5.54673 104.716 5.47928 104.716 5.34797V0.943075C104.716 0.753586 104.562 0.599976 104.372 0.599976H103.494C103.304 0.599976 103.149 0.753586 103.149 0.943075V13.2492C103.149 13.4387 103.304 13.5923 103.494 13.5923H104.372C104.562 13.5923 104.716 13.4387 104.716 13.2492V12.8603C104.716 12.7272 104.887 12.6601 104.986 12.7489L104.988 12.7507L104.99 12.7524C105.174 12.905 105.387 13.0564 105.629 13.2069C105.879 13.3628 106.182 13.4944 106.535 13.6034L106.535 13.6035L106.536 13.6036C106.9 13.7142 107.276 13.7694 107.664 13.7694C108.829 13.7694 109.845 13.3069 110.706 12.3948L110.706 12.3944C111.568 11.4753 112 10.3737 112 9.09738C112 7.81507 111.565 6.71032 110.697 5.7911C109.836 4.87343 108.823 4.40767 107.664 4.40767C107.275 4.40767 106.896 4.46598 106.526 4.58255C106.169 4.69108 105.869 4.81945 105.63 4.96972C105.396 5.11029 105.179 5.27221 104.976 5.45539L104.976 5.45615L104.975 5.45692ZM109.573 6.82366C110.146 7.44423 110.433 8.19913 110.433 9.09738C110.433 9.98947 110.146 10.7447 109.573 11.3716L109.573 11.3716C109.003 11.9961 108.368 12.2976 107.664 12.2976C106.923 12.2976 106.245 11.9861 105.628 11.3429C105.018 10.6962 104.716 9.94978 104.716 9.09738C104.716 8.23866 105.018 7.49238 105.628 6.85188C106.245 6.20248 106.923 5.88834 107.664 5.88834C108.367 5.88834 109.002 6.19233 109.573 6.82263L109.573 6.82315L109.573 6.82366Z" fill="#141E2D"/>
<path fill-rule="evenodd" clip-rule="evenodd" d="M15.0783 13.3755H15.084V13.3112L15.0902 13.3755H15.0959C15.4959 13.3755 15.8952 13.4587 16.2497 13.6249C16.7821 13.8747 17.3755 14.0143 18.0021 14.0143C19.4267 14.0143 20.9646 13.3631 22.1264 12.871L22.428 12.7438C22.5415 12.6962 22.6505 12.6512 22.7544 12.6095C23.0184 12.5036 23.2271 12.5022 23.2694 12.9267C23.3337 13.571 23.3171 14.1975 23.1481 15.1018C23.1326 15.1822 23.2121 15.2549 23.2958 15.2549H23.6872C23.7539 15.2549 23.8263 15.2185 23.86 15.1597C24.2373 14.3055 24.5593 13.2465 24.5262 12.1581C24.496 11.1655 24.3385 10.624 23.3713 11.0084L22.2553 11.3515C21.988 11.4157 21.9886 11.185 21.9886 11.0031C21.9886 10.9112 21.9931 10.8188 21.9818 10.7273C21.964 10.276 21.962 10.2197 22.7818 9.73572L24.4163 8.74027C24.532 8.66479 24.6872 8.68762 24.7677 8.79991C25.3117 9.44195 25.8755 10.4561 25.942 11.6536C26.0262 13.1682 25.8181 13.9917 25.5564 15.0273L25.5403 15.0908C25.5303 15.1778 25.5991 15.254 25.6868 15.254H26.1378C26.1964 15.254 26.2523 15.2168 26.274 15.1623C26.7577 14.1221 27.2268 12.8448 27.153 11.2892C27.0629 9.39073 26.335 7.69017 25.2118 6.80843C24.9008 6.5529 24.5902 6.53464 24.2595 6.76292L22.435 7.823C21.8375 8.18426 21.6657 7.98851 21.4976 7.65579C21.4616 7.58431 21.4237 7.51382 21.3843 7.4442C21.2314 7.17169 21.0787 6.87877 21.4633 6.60541C21.6231 6.49169 22.1216 6.15084 22.6777 5.77032L22.6872 5.7639L22.7319 5.73337L22.7747 5.70427L22.798 5.68843L22.8003 5.68672C23.5507 5.17408 24.3671 4.61622 24.5846 4.45856C24.9772 4.17392 25.3271 4.01784 25.5758 4.25767C26.6093 5.25455 28.1093 6.86722 28.6501 9.06985C29.1441 11.0819 28.6687 12.9579 28.229 14.6924L28.164 14.9494L28.1328 15.0737C28.1105 15.1655 28.1801 15.2553 28.2747 15.2553H28.6994C28.7511 15.2553 28.7992 15.2267 28.8253 15.1821C29.8584 13.1835 30.4946 10.9079 30.0076 8.27015C29.4923 5.47884 27.3968 3.2277 26.1469 2.10598L26.1313 2.09185C25.7462 1.74615 25.3875 1.42399 24.5846 1.975C23.7708 2.53344 19.7235 5.21803 19.3435 5.45144C18.9635 5.68486 18.5314 5.86863 18.1383 5.84566C17.1294 5.78673 16.277 5.7572 15.0948 5.7572H15.0902L15.084 5.82155V5.7572H15.0795C13.8972 5.7572 13.0448 5.78673 12.036 5.84566C11.6429 5.86863 11.2108 5.68486 10.8308 5.45144C10.4508 5.21803 6.40349 2.53344 5.58969 1.975C4.78673 1.42399 4.42803 1.74615 4.04295 2.09185L4.02733 2.10598C2.77744 3.2277 0.681935 5.47884 0.166643 8.27015C-0.320296 10.9079 0.315895 13.1835 1.349 15.1821C1.37511 15.2267 1.42318 15.2553 1.4749 15.2553H1.89955C1.99419 15.2553 2.06379 15.1655 2.04148 15.0737C2.00986 14.9474 1.97764 14.8203 1.94524 14.6924C1.5056 12.9579 1.03012 11.0819 1.52412 9.06985C2.06492 6.86722 3.56492 5.25455 4.59848 4.25767C4.84721 4.01784 5.1971 4.17392 5.58969 4.45856C5.8074 4.61636 6.62522 5.17522 7.37622 5.68843L7.39903 5.70384L7.50224 5.77446L7.54528 5.804L7.56038 5.81427C8.09047 6.17681 8.55726 6.49612 8.71098 6.60541C9.09556 6.87877 8.94283 7.17169 8.78996 7.4442C8.75053 7.51382 8.7127 7.58431 8.67664 7.65579C8.5086 7.98851 8.33677 8.18426 7.73923 7.823L5.91476 6.76292C5.58404 6.53464 5.2735 6.5529 4.96246 6.80843C3.83926 7.69017 3.11132 9.39073 3.02124 11.2892C2.94743 12.8448 3.41655 14.1221 3.90028 15.1623C3.92194 15.2168 3.97782 15.254 4.03649 15.254H4.48746C4.57516 15.254 4.64398 15.1778 4.63396 15.0908L4.61792 15.0273C4.35618 13.9917 4.14808 13.1682 4.23221 11.6536C4.29873 10.4561 4.86259 9.44195 5.40656 8.79991C5.48704 8.68762 5.64227 8.66479 5.75795 8.74027L7.39242 9.73572C8.21223 10.2197 8.21022 10.276 8.19248 10.7273C8.18367 10.7987 8.18443 10.8707 8.18519 10.9425L8.18562 11.0031C8.18569 11.185 8.18626 11.4157 7.91893 11.3515L6.80295 11.0084C5.83578 10.624 5.67824 11.1655 5.64807 12.1581C5.61498 13.2465 5.937 14.3055 6.31422 15.1597C6.34797 15.2185 6.42037 15.2549 6.48705 15.2549H6.8785C6.96212 15.2549 7.04167 15.1822 7.02615 15.1018C6.85712 14.1975 6.84052 13.571 6.90482 12.9267C6.94718 12.5022 7.15588 12.5036 7.41989 12.6095C7.60882 12.6853 7.81461 12.7723 8.03394 12.865L8.04782 12.871C9.20968 13.3631 10.7475 14.0143 12.1722 14.0143C12.7988 14.0143 13.3922 13.8747 13.9246 13.6249C14.279 13.4587 14.6784 13.3755 15.0783 13.3755ZM13.6123 10.6498C13.6917 10.6125 13.8875 10.7292 13.8445 10.8056C13.4995 11.4183 12.8416 11.8323 12.0868 11.8323C10.9743 11.8323 10.0724 10.9329 10.0724 9.82346C10.0724 8.71402 10.9743 7.81459 12.0868 7.81459C12.8416 7.81459 13.4995 8.22865 13.8445 8.84136C13.8875 8.91771 13.6917 9.03443 13.6123 8.99709C13.494 8.94145 13.3618 8.91034 13.2223 8.91034C12.7165 8.91034 12.3066 9.3191 12.3066 9.82346C12.3066 10.3278 12.7165 10.7366 13.2223 10.7366C13.3618 10.7366 13.494 10.7055 13.6123 10.6498ZM18.057 11.8323C18.8118 11.8323 19.4697 11.4183 19.8147 10.8056C19.8577 10.7292 19.6619 10.6125 19.5825 10.6498C19.4641 10.7055 19.3319 10.7366 19.1924 10.7366C18.6867 10.7366 18.2768 10.3278 18.2768 9.82346C18.2768 9.3191 18.6867 8.91034 19.1924 8.91034C19.3319 8.91034 19.4641 8.94145 19.5825 8.99709C19.6619 9.03443 19.8577 8.91771 19.8147 8.84136C19.4697 8.22865 18.8118 7.81459 18.057 7.81459C16.9444 7.81459 16.0425 8.71402 16.0425 9.82346C16.0425 10.9329 16.9444 11.8323 18.057 11.8323Z" fill="#3393FF"/>
</svg>
