<svg width="20" height="20" viewBox="0 0 20 20" fill="none" xmlns="http://www.w3.org/2000/svg">
<path fill-rule="evenodd" clip-rule="evenodd" d="M12.9993 0C16.8633 0 19.9993 3.136 19.9993 7C19.9993 10.864 16.8633 14 12.9993 14C9.13527 14 5.99927 10.864 5.99927 7C5.99927 3.136 9.13527 0 12.9993 0ZM12.9993 0.9996C9.68827 0.9996 6.99887 3.689 6.99887 7C6.99887 10.311 9.68827 13.0004 12.9993 13.0004C16.3103 13.0004 18.9997 10.311 18.9997 7C18.9997 3.689 16.3103 0.9996 12.9993 0.9996Z" fill="#141E2D"/>
<path d="M6.47522 7.60013H8.39221C8.57721 7.60013 8.74822 7.50412 8.84322 7.34612C9.09522 6.93112 9.59922 6.09912 9.92522 5.56212C9.98522 5.46312 10.0942 5.40612 10.2092 5.41212C10.3242 5.41912 10.4262 5.48813 10.4752 5.59313C10.9512 6.62213 11.9982 8.88412 12.5232 10.0171C12.5752 10.1301 12.6902 10.2011 12.8142 10.1951C12.9382 10.1901 13.0472 10.1101 13.0902 9.99412C13.5672 8.68512 14.5892 5.87913 15.0652 4.57113C15.1072 4.45713 15.2142 4.37913 15.3372 4.37413C15.4592 4.37013 15.5712 4.44013 15.6212 4.55213C15.9832 5.36713 16.5762 6.69913 16.8412 7.29513C16.9242 7.48013 17.1082 7.60013 17.3112 7.60013C17.9902 7.60013 19.4672 7.60013 19.4672 7.60013" stroke="#141E2D" stroke-miterlimit="1.8314" stroke-linejoin="round"/>
<path fill-rule="evenodd" clip-rule="evenodd" d="M5.40813 13.1356L6.83761 14.565C7.02605 14.7535 7.13201 15.0092 7.13171 15.2759C7.13188 15.5423 7.02639 15.7981 6.83786 15.9866L3.40508 19.4194C3.03357 19.7909 2.52932 20.0001 2.00373 20.0004C1.47859 20.0002 0.973833 19.7912 0.601711 19.419L0.600758 19.4181C-0.20154 18.6158 -0.201415 17.3156 0.600754 16.5134L3.97809 13.1361C4.37316 12.741 5.01316 12.7406 5.40813 13.1356ZM4.70114 13.8425C4.69734 13.8387 4.68983 13.8386 4.68521 13.8432L1.30788 17.2206C0.896168 17.6323 0.896596 18.3 1.30774 18.7111L1.30869 18.7121C1.49332 18.8967 1.74286 18.9993 2.00309 18.9998C2.26378 18.9999 2.51358 18.8967 2.69795 18.7123L6.13074 15.2795C6.13166 15.2786 6.13209 15.2763 6.13209 15.2763C6.13206 15.2744 6.13063 15.272 6.13063 15.272L4.70114 13.8425Z" fill="#141E2D"/>
<path d="M6.76025 14.7986L9.06403 12.4948" stroke="#141E2D" stroke-miterlimit="1.8314" stroke-linecap="square"/>
<path d="M7.54659 10.9625L5.28296 13.2261" stroke="#141E2D" stroke-miterlimit="1.8314" stroke-linecap="square"/>
</svg>
