<svg width="18" height="18" viewBox="0 0 18 18" fill="none" xmlns="http://www.w3.org/2000/svg">
<path d="M14.8879 11.9747C13.749 14.6043 11.1483 16.455 8.1148 16.4989C8.07672 16.5 8.03981 16.5 8.00173 16.5C7.96366 16.5 7.92674 16.5 7.88867 16.4989C3.80173 16.4389 0.501709 13.102 0.501709 9.00002C0.501709 4.89809 3.80173 1.56115 7.88867 1.50115C7.92674 1.5 7.96366 1.5 8.00173 1.5C8.03981 1.5 8.07672 1.5 8.1148 1.50115C11.1483 1.545 13.749 3.39578 14.8879 6.0254" stroke="#141E2D" stroke-miterlimit="1.8314" stroke-linejoin="round"/>
<path d="M4.21118 6.59194C4.74718 3.63231 6.2416 1.5 8 1.5C9.6384 1.5 11.0496 3.35193 11.6672 6.00001M11.6672 12C11.0496 14.6481 9.6384 16.5 8 16.5C6.2416 16.5 4.74718 14.3677 4.21118 11.4081" stroke="#141E2D" stroke-miterlimit="1.8314" stroke-linecap="round" stroke-linejoin="round"/>
<path fill-rule="evenodd" clip-rule="evenodd" d="M17.4977 9C17.4977 8.20473 17.1819 7.44109 16.6195 6.87818C16.056 6.31636 15.2937 6 14.4973 6H5.99826C5.2018 6 4.4395 6.31636 3.87608 6.87818C3.31369 7.44109 2.9978 8.20473 2.9978 9C2.9978 9.79528 3.31369 10.5589 3.87608 11.1218C4.4395 11.6836 5.2018 12 5.99826 12H14.4973C15.2937 12 16.056 11.6836 16.6195 11.1218C17.1819 10.5589 17.4977 9.79528 17.4977 9Z" stroke="#141E2D" stroke-miterlimit="1.8314" stroke-linejoin="round"/>
<path d="M7 10C7.55228 10 8 9.55228 8 9C8 8.44772 7.55228 8 7 8C6.44772 8 6 8.44772 6 9C6 9.55228 6.44772 10 7 10Z" fill="#141E2D"/>
<path d="M10.25 10C10.8023 10 11.25 9.55228 11.25 9C11.25 8.44772 10.8023 8 10.25 8C9.69772 8 9.25 8.44772 9.25 9C9.25 9.55228 9.69772 10 10.25 10Z" fill="#141E2D"/>
<path d="M13.5 10C14.0523 10 14.5 9.55228 14.5 9C14.5 8.44772 14.0523 8 13.5 8C12.9477 8 12.5 8.44772 12.5 9C12.5 9.55228 12.9477 10 13.5 10Z" fill="#141E2D"/>
</svg>
