<svg width="18" height="18" viewBox="0 0 18 18" fill="none" xmlns="http://www.w3.org/2000/svg">
<path d="M2.5 6.5H7" stroke="#141E2D" stroke-miterlimit="1.8314" stroke-linecap="round" stroke-linejoin="round"/>
<path d="M2.5 8.5H5.25" stroke="#141E2D" stroke-miterlimit="1.8314" stroke-linecap="round" stroke-linejoin="round"/>
<path d="M2.5 10.5H7.25" stroke="#141E2D" stroke-miterlimit="1.8314" stroke-linecap="round" stroke-linejoin="round"/>
<path fill-rule="evenodd" clip-rule="evenodd" d="M17.5 13.4996V4.50037C17.5 3.96981 17.289 3.46119 16.914 3.08581C16.539 2.71044 16.03 2.5 15.5 2.5H2.5C1.97 2.5 1.461 2.71044 1.086 3.08581C0.710999 3.46119 0.5 3.96981 0.5 4.50037V13.4996C0.5 14.0302 0.710999 14.5388 1.086 14.9142C1.461 15.2896 1.97 15.5 2.5 15.5H15.5C16.03 15.5 16.539 15.2896 16.914 14.9142C17.289 14.5388 17.5 14.0302 17.5 13.4996Z" stroke="#141E2D" stroke-miterlimit="1.8314" stroke-linejoin="round"/>
<path fill-rule="evenodd" clip-rule="evenodd" d="M7.08203 15.5C7.55936 12.664 10.0287 10.5 12.9993 10.5C14.79 10.5 16.3993 11.2867 17.4993 12.5333V13.5C17.4993 14.0307 17.2887 14.5387 16.914 14.9147C16.538 15.2893 16.03 15.5 15.4993 15.5H7.08203Z" stroke="#141E2D" stroke-miterlimit="1.8314" stroke-linejoin="round"/>
<path d="M13.0004 10.5C14.3811 10.5 15.5004 9.38072 15.5004 8C15.5004 6.61929 14.3811 5.5 13.0004 5.5C11.6197 5.5 10.5004 6.61929 10.5004 8C10.5004 9.38072 11.6197 10.5 13.0004 10.5Z" stroke="#141E2D" stroke-miterlimit="1.8314" stroke-linejoin="round"/>
</svg>
