<svg width="20" height="20" viewBox="0 0 20 20" fill="none" xmlns="http://www.w3.org/2000/svg">
<path fill-rule="evenodd" clip-rule="evenodd" d="M6 5.00055H2.5C1.395 5.00055 0.5 5.89538 0.5 7.00022C0.5 7.64306 0.5 8.35706 0.5 8.99989C0.5 10.1047 1.395 10.9996 2.5 10.9996C4.073 10.9996 6 10.9996 6 10.9996V5.00055Z" stroke="#141E2D" stroke-miterlimit="1.8314" stroke-linecap="round" stroke-linejoin="round"/>
<path d="M17.5 5.17084C18.665 5.58284 19.5 6.69484 19.5 7.99984C19.5 9.30484 18.665 10.4168 17.5 10.8288" stroke="#141E2D" stroke-miterlimit="1.8314" stroke-linecap="round" stroke-linejoin="round"/>
<path d="M2.69934 10.9995L4.65919 18.3138C4.74957 18.6511 4.93547 18.9485 5.17587 19.1403C5.41583 19.3294 5.69195 19.4006 5.94143 19.3337C6.20389 19.2634 6.41842 19.055 6.53655 18.753C6.65539 18.4535 6.6679 18.083 6.57326 17.7297L4.76996 10.9998" stroke="#141E2D" stroke-miterlimit="1.8314" stroke-linecap="round" stroke-linejoin="round"/>
<path fill-rule="evenodd" clip-rule="evenodd" d="M17.4998 2.67335C17.4998 1.98674 17.1469 1.34735 16.5661 0.981854C15.9847 0.615409 15.2564 0.572909 14.6366 0.869465C11.231 2.49863 5.99976 5.00046 5.99976 5.00046V10.9996C5.99976 10.9996 11.231 13.5014 14.6366 15.1306C15.2564 15.4271 15.9847 15.3846 16.5661 15.0182C17.1469 14.6527 17.4998 14.0133 17.4998 13.3267C17.4998 10.2837 17.4998 5.71635 17.4998 2.67335Z" stroke="#141E2D" stroke-miterlimit="1.8314" stroke-linecap="round" stroke-linejoin="round"/>
</svg>
