<svg width="20" height="20" viewBox="0 0 20 20" fill="none" xmlns="http://www.w3.org/2000/svg">
<path fill-rule="evenodd" clip-rule="evenodd" d="M19.5 2.49922C19.5 1.39511 18.6022 0.5 17.5002 0.5C13.8522 0.5 6.14776 0.5 2.49976 0.5C1.39776 0.5 0.5 1.39511 0.5 2.49922V4.83411C0.5 5.93822 1.39776 6.83333 2.49976 6.83333C6.14776 6.83333 13.8522 6.83333 17.5002 6.83333C18.6022 6.83333 19.5 5.93822 19.5 4.83411V2.49922Z" stroke="#141E2D" stroke-miterlimit="1.8314" stroke-linecap="round" stroke-linejoin="round"/>
<path fill-rule="evenodd" clip-rule="evenodd" d="M19.5 8.83253C19.5 7.72842 18.6022 6.83331 17.5002 6.83331C13.8522 6.83331 6.14776 6.83331 2.49976 6.83331C1.39776 6.83331 0.5 7.72842 0.5 8.83253V11.1674C0.5 12.2715 1.39776 13.1666 2.49976 13.1666C6.14776 13.1666 13.8522 13.1666 17.5002 13.1666C18.6022 13.1666 19.5 12.2715 19.5 11.1674V8.83253Z" stroke="#141E2D" stroke-miterlimit="1.8314" stroke-linecap="round" stroke-linejoin="round"/>
<path fill-rule="evenodd" clip-rule="evenodd" d="M19.5 15.1659C19.5 14.0618 18.6022 13.1667 17.5002 13.1667C13.8522 13.1667 6.14776 13.1667 2.49976 13.1667C1.39776 13.1667 0.5 14.0618 0.5 15.1659V17.5008C0.5 18.6049 1.39776 19.5 2.49976 19.5C6.14776 19.5 13.8522 19.5 17.5002 19.5C18.6022 19.5 19.5 18.6049 19.5 17.5008V15.1659Z" stroke="#141E2D" stroke-miterlimit="1.8314" stroke-linecap="round" stroke-linejoin="round"/>
<path fill-rule="evenodd" clip-rule="evenodd" d="M16.5 10C16.5 9.73467 16.3942 9.48067 16.2072 9.29267C16.0193 9.10533 15.7652 9 15.4998 9C13.8641 9 10.6359 9 9.00016 9C8.73478 9 8.48072 9.10533 8.29278 9.29267C8.10578 9.48067 8 9.73467 8 10C8 10.2653 8.10578 10.5193 8.29278 10.7073C8.48072 10.8947 8.73478 11 9.00016 11C10.6359 11 13.8641 11 15.4998 11C15.7652 11 16.0193 10.8947 16.2072 10.7073C16.3942 10.5193 16.5 10.2653 16.5 10Z" stroke="#141E2D" stroke-miterlimit="1.8314" stroke-linecap="round" stroke-linejoin="round"/>
<path fill-rule="evenodd" clip-rule="evenodd" d="M12 3.66669C12 3.40135 11.8942 3.14735 11.7072 2.95935C11.5193 2.77202 11.2652 2.66669 10.9998 2.66669C9.36405 2.66669 6.13405 2.66669 4.49922 2.66669C3.94767 2.66669 3.5 3.11402 3.5 3.66535V3.66802C3.5 4.21935 3.94767 4.66669 4.49922 4.66669C6.13405 4.66669 9.36405 4.66669 10.9998 4.66669C11.2652 4.66669 11.5193 4.56135 11.7072 4.37402C11.8942 4.18602 12 3.93202 12 3.66669Z" stroke="#141E2D" stroke-miterlimit="1.8314" stroke-linecap="round" stroke-linejoin="round"/>
<path fill-rule="evenodd" clip-rule="evenodd" d="M12 16.3333C12 16.068 11.8942 15.814 11.7072 15.626C11.5193 15.4386 11.2652 15.3333 10.9998 15.3333C9.36405 15.3333 6.13594 15.3333 4.50016 15.3333C4.23478 15.3333 3.98072 15.4386 3.79278 15.626C3.60578 15.814 3.5 16.068 3.5 16.3333C3.5 16.5986 3.60578 16.8526 3.79278 17.0406C3.98072 17.228 4.23478 17.3333 4.50016 17.3333C6.13594 17.3333 9.36405 17.3333 10.9998 17.3333C11.2652 17.3333 11.5193 17.228 11.7072 17.0406C11.8942 16.8526 12 16.5986 12 16.3333Z" stroke="#141E2D" stroke-miterlimit="1.8314" stroke-linecap="round" stroke-linejoin="round"/>
</svg>
