<svg width="20" height="20" viewBox="0 0 20 20" fill="none" xmlns="http://www.w3.org/2000/svg">
<path d="M5.50071 8.5H4.82763C3.79296 8.5 2.92896 9.289 2.83509 10.319L2.19936 17.319C2.14816 17.879 2.33483 18.434 2.71457 18.849C3.09323 19.264 3.62869 19.5 4.19082 19.5H15.8111C16.3733 19.5 16.9087 19.264 17.2874 18.849C17.6671 18.434 17.8538 17.879 17.8026 17.319L17.1669 10.319C17.073 9.289 16.209 8.5 15.1743 8.5H14.5013M12.5013 8.5H7.50071" stroke="#141E2D" stroke-miterlimit="1.8314" stroke-linecap="round" stroke-linejoin="round"/>
<path d="M14.4998 10.8827V4.99962C14.4998 3.80687 14.0258 2.6617 13.1815 1.81756C12.338 0.97446 11.1929 0.499634 9.99976 0.499634C8.80661 0.499634 7.66147 0.97446 6.81804 1.81756C5.97375 2.6617 5.49976 3.80687 5.49976 4.99962V10.8827" stroke="#141E2D" stroke-miterlimit="1.8314" stroke-linecap="round" stroke-linejoin="round"/>
<path d="M12.5002 10.8821V4.99804C12.5002 3.61824 11.382 2.50024 10.0025 2.50024H10.0002C9.33739 2.50024 8.70139 2.76293 8.23225 3.23183C7.76368 3.70073 7.50024 4.33728 7.50024 4.99983V10.8821" stroke="#141E2D" stroke-miterlimit="1.8314" stroke-linecap="round" stroke-linejoin="round"/>
<path d="M6.5 13.5C7.32843 13.5 8 12.8284 8 12C8 11.1716 7.32843 10.5 6.5 10.5C5.67157 10.5 5 11.1716 5 12C5 12.8284 5.67157 13.5 6.5 13.5Z" stroke="#141E2D" stroke-miterlimit="1.8314" stroke-linecap="round" stroke-linejoin="round"/>
<path fill-rule="evenodd" clip-rule="evenodd" d="M14.25 10.701C14.6982 10.9602 15 11.445 15 12C15 12.555 14.6982 13.0398 14.25 13.299C14.0292 13.4268 13.773 13.5 13.5 13.5C13.227 13.5 12.9708 13.4268 12.75 13.299C12.3018 13.0398 12 12.555 12 12C12 11.445 12.3018 10.9602 12.75 10.701C12.9708 10.5732 13.227 10.5 13.5 10.5C13.773 10.5 14.0292 10.5732 14.25 10.701Z" stroke="#141E2D" stroke-miterlimit="1.8314" stroke-linecap="round" stroke-linejoin="round"/>
</svg>
