<svg width="20" height="20" viewBox="0 0 20 20" fill="none" xmlns="http://www.w3.org/2000/svg">
<path fill-rule="evenodd" clip-rule="evenodd" d="M17.0003 10V18C17.0003 19.105 16.1043 20 15.0006 20H4.99992C3.89625 20 3.00024 19.105 3.00024 18V10C3.00024 8.895 3.89625 8 4.99992 8H15.0006C16.1043 8 17.0003 8.895 17.0003 10ZM16.0005 10C16.0005 9.448 15.5524 9 15.0006 9H4.99992C4.44809 9 4.00007 9.448 4.00007 10V18C4.00007 18.552 4.44809 19 4.99992 19H15.0006C15.5524 19 16.0005 18.552 16.0005 18V10Z" fill="#141E2D"/>
<path fill-rule="evenodd" clip-rule="evenodd" d="M15.0002 4.998V9H5.00024V5.00025C5.00024 2.23875 7.23858 0 10.0002 0H10.0019C12.7627 0 15.0002 2.238 15.0002 4.998ZM14.0002 4.998C14.0002 2.79 12.2102 0.99975 10.0019 0.99975H10.0002C7.79108 0.99975 6.00024 2.79075 6.00024 5.00025V8.00025H14.0002V4.998Z" fill="#141E2D"/>
<path fill-rule="evenodd" clip-rule="evenodd" d="M13 4.99775V9H7V4.99775C7 4.20267 7.316 3.44025 7.878 2.87792C8.4405 2.31558 9.203 2 9.998 2H10.002C10.797 2 11.5595 2.31558 12.122 2.87792C12.684 3.44025 13 4.20267 13 4.99775ZM12 4.99775C12 4.46808 11.7895 3.96 11.415 3.58492C11.04 3.21042 10.532 2.99983 10.002 2.99983H9.998C9.468 2.99983 8.96 3.21042 8.585 3.58492C8.2105 3.96 8 4.46808 8 4.99775V8.00016H12V4.99775Z" fill="#141E2D"/>
<path d="M6.50012 14L8.83346 16.75L13.5001 11.25" stroke="#141E2D" stroke-miterlimit="1.8314" stroke-linecap="round" stroke-linejoin="round"/>
</svg>
