<svg width="20" height="20" viewBox="0 0 20 20" fill="none" xmlns="http://www.w3.org/2000/svg">
<path d="M10 19.5C15.2467 19.5 19.5 15.2467 19.5 10C19.5 4.75329 15.2467 0.5 10 0.5C4.75329 0.5 0.5 4.75329 0.5 10C0.5 15.2467 4.75329 19.5 10 19.5Z" stroke="#141E2D" stroke-miterlimit="1.8314" stroke-linecap="round" stroke-linejoin="round"/>
<path d="M14.1256 11.7991C13.6715 12.8372 12.8368 13.672 11.7986 14.1256M8.20134 14.1256C7.16319 13.672 6.32844 12.8372 5.87439 11.7991M11.7991 5.87439C12.8372 6.32844 13.6715 7.16274 14.1256 8.20089M5.87439 8.20089C6.32844 7.16274 7.16274 6.32844 8.20089 5.87439" stroke="#141E2D" stroke-miterlimit="1.8314" stroke-linecap="round" stroke-linejoin="round"/>
<path d="M0.711426 12H4.9998C5.31393 12 5.61055 11.928 5.8748 11.7993C6.54068 11.4747 7.00005 10.7907 7.00005 10C7.00005 9.20933 6.54068 8.52533 5.8748 8.20067C5.61055 8.072 5.31393 8 4.9998 8H0.711426" stroke="#141E2D" stroke-miterlimit="1.8314" stroke-linecap="round" stroke-linejoin="round"/>
<path d="M8 0.711365V4.99974C8 5.31387 8.072 5.61049 8.20066 5.87474C8.52533 6.54062 9.20933 6.99999 10 6.99999C10.7907 6.99999 11.4747 6.54062 11.7993 5.87474C11.928 5.61049 12 5.31387 12 4.99974V0.711365" stroke="#141E2D" stroke-miterlimit="1.8314" stroke-linecap="round" stroke-linejoin="round"/>
<path d="M19.2886 8.00006H15.0002C14.6861 8.00006 14.3894 8.07206 14.1252 8.20073C13.4593 8.52539 13 9.20939 13 10.0001C13 10.7907 13.4593 11.4747 14.1252 11.7994C14.3894 11.9281 14.6861 12.0001 15.0002 12.0001H19.2886" stroke="#141E2D" stroke-miterlimit="1.8314" stroke-linecap="round" stroke-linejoin="round"/>
<path d="M12 19.2892V15.0002C12 14.6946 11.93 14.3964 11.7987 14.1264C11.7027 13.9277 11.5733 13.7449 11.414 13.5864C11.0393 13.2114 10.5307 13.0005 10 13.0005C9.46933 13.0005 8.96067 13.2114 8.586 13.5864C8.42667 13.7449 8.29733 13.9277 8.20133 14.1264C8.07 14.3964 8 14.6946 8 15.0002V19.2892" stroke="#141E2D" stroke-miterlimit="1.8314" stroke-linecap="round" stroke-linejoin="round"/>
</svg>
