<svg width="20" height="20" viewBox="0 0 20 20" fill="none" xmlns="http://www.w3.org/2000/svg">
<mask id="mask0_204_6881" style="mask-type:alpha" maskUnits="userSpaceOnUse" x="0" y="0" width="20" height="20">
<circle cx="10" cy="10" r="10" fill="#D9D9D9"/>
</mask>
<g mask="url(#mask0_204_6881)">
<circle cx="10" cy="10" r="9.5" fill="#F5F8FB" stroke="#141E2D"/>
<path d="M5.87903 4.71741C6.68424 4.78556 7.47882 4.45644 8 3.83887C8.52118 4.45644 9.31576 4.78556 10.121 4.71741C10.0528 5.52262 10.3819 6.3172 10.9995 6.83838C10.3819 7.35956 10.0528 8.15414 10.121 8.95935C9.31576 8.8912 8.52118 9.22032 8 9.83788C7.47882 9.22032 6.68424 8.8912 5.87903 8.95935C5.94718 8.15414 5.61806 7.35956 5.0005 6.83838C5.61806 6.3172 5.94718 5.52262 5.87903 4.71741Z" stroke="#141E2D" stroke-linejoin="round"/>
<mask id="path-4-inside-1_204_6881" fill="white">
<path fill-rule="evenodd" clip-rule="evenodd" d="M14.0564 23.4211C12.9884 24.4015 11.5641 25 10 25C6.68629 25 4 22.3137 4 19C4 15.6863 6.68629 13 10 13C10.3762 13 10.7444 13.0346 11.1015 13.1009C11.5094 11.3247 13.1 10 15 10C16.0728 10 17.0469 10.4223 17.7652 11.1097C17.9975 11.0384 18.2443 11 18.5 11C19.8807 11 21 12.1193 21 13.5C21 14.2404 20.6781 14.9056 20.1667 15.3634C20.6483 16.1773 20.9248 17.1271 20.9248 18.1414C20.9248 21.1582 18.4792 23.6038 15.4624 23.6038C14.9763 23.6038 14.505 23.5403 14.0564 23.4211Z"/>
</mask>
<path d="M14.0564 23.4211L14.3131 22.4546L13.7837 22.314L13.3801 22.6844L14.0564 23.4211ZM11.1015 13.1009L10.919 14.0841L11.8615 14.259L12.0761 13.3247L11.1015 13.1009ZM17.7652 11.1097L17.0738 11.8322L17.4978 12.2379L18.0587 12.0657L17.7652 11.1097ZM20.1667 15.3634L19.4998 14.6183L18.8878 15.166L19.3061 15.8727L20.1667 15.3634ZM13.3801 22.6844C12.4893 23.5022 11.304 24 10 24V26C11.8242 26 13.4874 25.3009 14.7326 24.1578L13.3801 22.6844ZM10 24C7.23858 24 5 21.7614 5 19H3C3 22.866 6.13401 26 10 26V24ZM5 19C5 16.2386 7.23858 14 10 14V12C6.13401 12 3 15.134 3 19H5ZM10 14C10.3148 14 10.6218 14.029 10.919 14.0841L11.2839 12.1177C10.867 12.0403 10.4377 12 10 12V14ZM12.0761 13.3247C12.382 11.9927 13.5763 11 15 11V9C12.6237 9 10.6368 10.6567 10.1268 12.877L12.0761 13.3247ZM15 11C15.805 11 16.5341 11.3157 17.0738 11.8322L18.4566 10.3873C17.5596 9.52887 16.3405 9 15 9V11ZM18.0587 12.0657C18.197 12.0232 18.3449 12 18.5 12V10C18.1437 10 17.7981 10.0536 17.4717 10.1538L18.0587 12.0657ZM18.5 12C19.3284 12 20 12.6716 20 13.5H22C22 11.567 20.433 10 18.5 10V12ZM20 13.5C20 13.9442 19.8082 14.3422 19.4998 14.6183L20.8336 16.1085C21.548 15.4691 22 14.5367 22 13.5H20ZM19.3061 15.8727C19.699 16.5367 19.9248 17.3111 19.9248 18.1414H21.9248C21.9248 16.943 21.5977 15.818 21.0273 14.8541L19.3061 15.8727ZM19.9248 18.1414C19.9248 20.6059 17.9269 22.6038 15.4624 22.6038V24.6038C19.0315 24.6038 21.9248 21.7104 21.9248 18.1414H19.9248ZM15.4624 22.6038C15.0637 22.6038 14.6787 22.5517 14.3131 22.4546L13.7997 24.3876C14.3313 24.5288 14.8889 24.6038 15.4624 24.6038V22.6038Z" fill="#141E2D" mask="url(#path-4-inside-1_204_6881)"/>
</g>
</svg>
