<svg width="20" height="20" viewBox="0 0 20 20" fill="none" xmlns="http://www.w3.org/2000/svg">
<path fill-rule="evenodd" clip-rule="evenodd" d="M1.818 15.748C0.673 14.121 0 12.139 0 10C0 4.481 4.481 0 10 0C15.519 0 20 4.481 20 10C20 12.139 19.327 14.121 18.182 15.748C16.371 18.319 13.38 20 10 20C6.62 20 3.629 18.319 1.818 15.748ZM2.636 15.172C4.265 17.486 6.957 19 10 19C13.043 19 15.735 17.486 17.364 15.172C18.395 13.709 19 11.924 19 10C19 5.033 14.967 1 10 1C5.033 1 1 5.033 1 10C1 11.924 1.605 13.709 2.636 15.172Z" fill="#141E2D"/>
<path fill-rule="evenodd" clip-rule="evenodd" d="M1.81836 15.7478C3.24175 12.6518 6.37099 10.5001 10.0001 10.5001C13.6292 10.5001 16.7584 12.6518 18.1818 15.7478C16.3721 18.319 13.3799 19.9999 10.0001 19.9999C6.62022 19.9999 3.62806 18.319 1.81836 15.7478ZM2.99113 15.6425C4.6416 17.689 7.16853 19.0002 10.0001 19.0002C12.8316 19.0002 15.3586 17.689 17.009 15.6425C15.6466 13.1738 13.0172 11.4998 10.0001 11.4998C6.98299 11.4998 4.3536 13.1738 2.99113 15.6425Z" fill="#141E2D"/>
<path fill-rule="evenodd" clip-rule="evenodd" d="M10 3.50012C12.2077 3.50012 13.9999 5.29232 13.9999 7.50002C13.9999 9.70772 12.2077 11.4999 10 11.4999C7.79232 11.4999 6.00012 9.70772 6.00012 7.50002C6.00012 5.29232 7.79232 3.50012 10 3.50012ZM10 4.50002C8.34432 4.50002 7.00002 5.84432 7.00002 7.50002C7.00002 9.15572 8.34432 10.5 10 10.5C11.6557 10.5 13 9.15572 13 7.50002C13 5.84432 11.6557 4.50002 10 4.50002Z" fill="#141E2D"/>
</svg>
